<svg width="100%" height="100%" viewBox="0 0 44 39" fill="none" xmlns="http://www.w3.org/2000/svg">
<path d="M26.4847 5.07696L30.3558 9.30773H38.9231V34.6923H5.07696V9.30773H13.6443L17.5154 5.07696H26.4847ZM28.3462 0.846191H15.6539L11.7827 5.07696H5.07696C2.75004 5.07696 0.846191 6.98081 0.846191 9.30773V34.6923C0.846191 37.0193 2.75004 38.9231 5.07696 38.9231H38.9231C41.25 38.9231 43.1539 37.0193 43.1539 34.6923V9.30773C43.1539 6.98081 41.25 5.07696 38.9231 5.07696H32.2173L28.3462 0.846191ZM22 15.6539C25.4904 15.6539 28.3462 18.5097 28.3462 22C28.3462 25.4904 25.4904 28.3462 22 28.3462C18.5097 28.3462 15.6539 25.4904 15.6539 22C15.6539 18.5097 18.5097 15.6539 22 15.6539ZM22 11.4231C16.1616 11.4231 11.4231 16.1616 11.4231 22C11.4231 27.8385 16.1616 32.577 22 32.577C27.8385 32.577 32.577 27.8385 32.577 22C32.577 16.1616 27.8385 11.4231 22 11.4231Z" fill="#808080"/>
</svg>
