<svg width="100%" height="100%" viewBox="0 0 246 170" fill="none" xmlns="http://www.w3.org/2000/svg">
<g clip-path="url(#clip0_621_3648)">
<path d="M223.575 159.156H20.4247C14.2254 159.156 9.40894 154.959 9.40894 150.022V43.2252C9.40894 38.2881 14.2254 34.0918 20.4247 34.0918H223.575C229.775 34.0918 234.591 38.2881 234.591 43.2252V150.022C234.591 154.959 229.775 159.156 223.575 159.156Z" fill="white" stroke="#E1E4E5" stroke-width="4"/>
<path fill-rule="evenodd" clip-rule="evenodd" d="M28.2368 70.5169V110.298C28.2368 112.458 29.9685 114.206 32.107 114.206H55.5629L65.8019 99.6358C66.2899 98.9408 67.5106 98.9408 67.9986 99.6358L71.5834 104.738L71.6111 104.778L71.6354 104.743L79.3234 93.5985C79.8549 92.8267 81.1872 92.8267 81.7186 93.5985L91.9001 108.359V70.5169C91.9001 68.3575 90.1636 66.6089 88.0295 66.6089H32.107C29.9685 66.6089 28.2368 68.3575 28.2368 70.5169Z" fill="#FFB444"/>
<path d="M46.1907 93.7035C42.456 93.7035 39.4287 90.6808 39.4287 86.9522C39.4287 83.2236 42.456 80.2012 46.1907 80.2012C49.9254 80.2012 52.953 83.2236 52.953 86.9522C52.953 90.6808 49.9254 93.7035 46.1907 93.7035Z" fill="white"/>
<path d="M234.591 48.5203H9.40894V44.9564C9.40894 38.8833 14.3417 33.9585 20.4247 33.9585H223.575C229.658 33.9585 234.591 38.8833 234.591 44.9564V48.5203Z" fill="white" stroke="#E1E4E5" stroke-width="4"/>
<path d="M20.4459 44.2601C21.1123 44.2601 21.7514 43.9958 22.2226 43.5253C22.6938 43.0549 22.9585 42.4168 22.9585 41.7515C22.9585 41.0862 22.6938 40.4482 22.2226 39.9777C21.7514 39.5073 21.1123 39.243 20.4459 39.243C19.7796 39.243 19.1405 39.5073 18.6693 39.9777C18.1981 40.4482 17.9333 41.0862 17.9333 41.7515C17.9333 42.4168 18.1981 43.0549 18.6693 43.5253C19.1405 43.9958 19.7796 44.2601 20.4459 44.2601ZM30.9155 44.2601C31.2455 44.26 31.5723 44.1951 31.8771 44.069C32.182 43.9429 32.459 43.7581 32.6923 43.5252C32.9256 43.2922 33.1107 43.0156 33.2369 42.7112C33.3632 42.4069 33.4282 42.0806 33.4281 41.7512C33.4281 41.4217 33.3631 41.0955 33.2368 40.7912C33.1105 40.4868 32.9254 40.2103 32.6921 39.9773C32.4587 39.7444 32.1817 39.5596 31.8768 39.4336C31.5719 39.3075 31.2452 39.2427 30.9152 39.2427C30.2488 39.2427 29.6097 39.5071 29.1385 39.9776C28.6673 40.4481 28.4026 41.0862 28.4026 41.7515C28.4027 42.4169 28.6674 43.055 29.1387 43.5254C29.61 43.9958 30.2491 44.2601 30.9155 44.2601ZM40.9663 44.2601C41.6327 44.2601 42.2717 43.9958 42.7429 43.5253C43.2141 43.0549 43.4789 42.4168 43.4789 41.7515C43.4789 41.0862 43.2141 40.4482 42.7429 39.9777C42.2717 39.5073 41.6327 39.243 40.9663 39.243C40.2999 39.243 39.6608 39.5073 39.1896 39.9777C38.7184 40.4482 38.4537 41.0862 38.4537 41.7515C38.4537 42.4168 38.7184 43.0549 39.1896 43.5253C39.6608 43.9958 40.2999 44.2601 40.9663 44.2601Z" fill="#E1E4E5"/>
<path d="M201.738 66.4512H116.182C114.859 66.4512 113.787 67.522 113.787 68.8428C113.787 70.1637 114.859 71.2345 116.182 71.2345H201.738C203.061 71.2345 204.133 70.1637 204.133 68.8428C204.133 67.522 203.061 66.4512 201.738 66.4512Z" fill="#E1E4E5"/>
<path d="M201.738 119.41H116.182C114.859 119.41 113.787 120.48 113.787 121.801C113.787 123.122 114.859 124.193 116.182 124.193H201.738C203.061 124.193 204.133 123.122 204.133 121.801C204.133 120.48 203.061 119.41 201.738 119.41Z" fill="#E1E4E5"/>
<path d="M201.738 79.7764H116.182C114.859 79.7764 113.787 80.8472 113.787 82.168C113.787 83.4889 114.859 84.5597 116.182 84.5597H201.738C203.061 84.5597 204.133 83.4889 204.133 82.168C204.133 80.8472 203.061 79.7764 201.738 79.7764Z" fill="#E1E4E5"/>
<path d="M199 132.734H118.92C116.085 132.734 113.787 135.029 113.787 137.859C113.787 140.69 116.085 142.984 118.92 142.984H199C201.835 142.984 204.133 140.69 204.133 137.859C204.133 135.029 201.835 132.734 199 132.734Z" fill="#FFB444"/>
<path d="M196.776 93.1011H116.011C114.783 93.1011 113.787 94.0954 113.787 95.3219C113.787 96.5484 114.783 97.5427 116.011 97.5427H196.776C198.004 97.5427 199 96.5484 199 95.3219C199 94.0954 198.004 93.1011 196.776 93.1011Z" fill="#E1E4E5"/>
<path d="M201.738 106.084H116.182C114.859 106.084 113.787 107.155 113.787 108.476C113.787 109.797 114.859 110.868 116.182 110.868H201.738C203.061 110.868 204.133 109.797 204.133 108.476C204.133 107.155 203.061 106.084 201.738 106.084Z" fill="#E1E4E5"/>
<path d="M195.235 7.6499H74.0888C68.7967 7.6499 64.5066 11.933 64.5066 17.2166V45.9166C64.5066 51.2001 68.7967 55.4832 74.0888 55.4832H195.235C200.528 55.4832 204.818 51.2001 204.818 45.9166V17.2166C204.818 11.933 200.528 7.6499 195.235 7.6499Z" fill="white" stroke="#E1E4E5" stroke-width="4"/>
<path fill-rule="evenodd" clip-rule="evenodd" d="M85.5154 39.7078C85.331 39.8071 85.1222 39.8524 84.9132 39.8386C84.7041 39.8248 84.5031 39.7525 84.3334 39.6299C84.1633 39.5068 84.0311 39.3387 83.9518 39.1445C83.8724 38.9503 83.8491 38.7378 83.8844 38.5311L84.6934 33.839L81.2677 30.5146C81.1191 30.368 81.0143 30.1831 80.9651 29.9805C80.9158 29.7778 80.924 29.5655 80.9888 29.3673C81.0532 29.1692 81.1717 28.993 81.3309 28.8586C81.4902 28.7242 81.6839 28.6368 81.8902 28.6064L86.6263 27.9217L88.7415 23.6491C88.8349 23.4618 88.9787 23.3041 89.1569 23.1938C89.335 23.0835 89.5404 23.025 89.7501 23.0249C90.1768 23.0249 90.5673 23.2665 90.7582 23.6491L92.8739 27.9217L97.6099 28.6064C97.8162 28.6368 98.0099 28.7242 98.1692 28.8586C98.3284 28.993 98.4469 29.1692 98.5113 29.3673C98.5761 29.5655 98.5843 29.7778 98.535 29.9805C98.4858 30.1831 98.381 30.368 98.2324 30.5146L94.8047 33.8373L95.6137 38.5291C95.6495 38.7359 95.6265 38.9487 95.5474 39.1432C95.4683 39.3377 95.3362 39.5062 95.1661 39.6296C94.9962 39.7524 94.7951 39.825 94.5858 39.8388C94.3765 39.8527 94.1676 39.8072 93.983 39.7078L89.748 37.4952L85.5154 39.7078ZM107.886 39.7078C107.509 39.9104 107.051 39.88 106.704 39.6299C106.534 39.5068 106.401 39.3387 106.322 39.1445C106.243 38.9503 106.22 38.7378 106.255 38.5311L107.064 33.839L103.638 30.5146C103.49 30.368 103.385 30.183 103.336 29.9804C103.287 29.7778 103.295 29.5655 103.36 29.3673C103.424 29.1692 103.542 28.993 103.701 28.8586C103.861 28.7241 104.054 28.6368 104.261 28.6064L108.997 27.9217L111.112 23.6491C111.206 23.4618 111.349 23.3041 111.528 23.1938C111.706 23.0835 111.911 23.025 112.121 23.0249C112.548 23.0249 112.938 23.2665 113.129 23.6491L115.245 27.9217L119.981 28.6064C120.187 28.6368 120.381 28.7242 120.54 28.8586C120.699 28.993 120.818 29.1692 120.882 29.3673C120.947 29.5655 120.955 29.7778 120.906 29.9804C120.856 30.183 120.752 30.368 120.603 30.5146L117.175 33.8373L117.984 38.5291C118.02 38.736 117.997 38.9488 117.918 39.1433C117.839 39.3378 117.707 39.5063 117.536 39.6296C117.367 39.7524 117.165 39.825 116.956 39.8388C116.747 39.8527 116.538 39.8072 116.353 39.7078L112.119 37.4952L107.886 39.7078ZM130.257 39.7078C130.072 39.8071 129.863 39.8524 129.654 39.8386C129.445 39.8248 129.244 39.7525 129.074 39.6299C128.904 39.5068 128.772 39.3387 128.693 39.1445C128.614 38.9503 128.59 38.7378 128.625 38.5311L129.434 33.839L126.009 30.5146C125.86 30.368 125.755 30.1831 125.706 29.9805C125.657 29.7778 125.665 29.5655 125.73 29.3673C125.794 29.1692 125.913 28.993 126.072 28.8586C126.231 28.7242 126.425 28.6368 126.631 28.6064L131.367 27.9217L133.483 23.6491C133.576 23.4618 133.72 23.3041 133.898 23.1938C134.076 23.0835 134.282 23.025 134.491 23.0249C134.918 23.0249 135.308 23.2665 135.499 23.6491L137.615 27.9217L142.351 28.6064C142.557 28.6368 142.751 28.7242 142.91 28.8586C143.07 28.993 143.188 29.1692 143.252 29.3673C143.317 29.5655 143.325 29.7778 143.276 29.9805C143.227 30.1831 143.122 30.368 142.973 30.5146L139.546 33.8373L140.355 38.5291C140.391 38.7359 140.368 38.9487 140.289 39.1432C140.209 39.3377 140.077 39.5062 139.907 39.6296C139.737 39.7524 139.536 39.825 139.327 39.8388C139.118 39.8527 138.909 39.8072 138.724 39.7078L134.489 37.4952L130.257 39.7078ZM152.627 39.7078C152.443 39.8071 152.234 39.8524 152.025 39.8386C151.816 39.8248 151.615 39.7525 151.445 39.6299C151.275 39.5069 151.143 39.3388 151.063 39.1446C150.984 38.9504 150.961 38.7378 150.996 38.5311L151.805 33.839L148.379 30.5146C148.231 30.368 148.126 30.183 148.077 29.9804C148.028 29.7778 148.036 29.5655 148.101 29.3673C148.165 29.1692 148.283 28.993 148.443 28.8586C148.602 28.7241 148.795 28.6368 149.002 28.6064L153.738 27.9217L155.853 23.6491C155.947 23.4618 156.091 23.3041 156.269 23.1938C156.447 23.0835 156.652 23.025 156.862 23.0249C157.289 23.0249 157.679 23.2665 157.87 23.6491L159.986 27.9217L164.722 28.6064C164.928 28.6368 165.122 28.7242 165.281 28.8586C165.44 28.993 165.559 29.1692 165.623 29.3673C165.688 29.5655 165.696 29.7778 165.647 29.9804C165.597 30.183 165.493 30.368 165.344 30.5146L161.916 33.8373L162.726 38.5291C162.761 38.736 162.738 38.9488 162.659 39.1433C162.58 39.3378 162.448 39.5063 162.278 39.6296C162.108 39.7524 161.907 39.825 161.697 39.8388C161.488 39.8527 161.279 39.8072 161.094 39.7078L156.86 37.4952L152.627 39.7078ZM174.998 39.7078C174.813 39.8071 174.604 39.8524 174.395 39.8386C174.186 39.8248 173.985 39.7525 173.816 39.6299C173.646 39.5068 173.513 39.3387 173.434 39.1445C173.355 38.9503 173.331 38.7378 173.367 38.5311L174.176 33.839L170.75 30.5146C170.601 30.368 170.497 30.1831 170.447 29.9805C170.398 29.7778 170.406 29.5655 170.471 29.3673C170.535 29.1692 170.654 28.993 170.813 28.8586C170.972 28.7242 171.166 28.6368 171.372 28.6064L176.108 27.9217L178.224 23.6491C178.317 23.4618 178.461 23.3041 178.639 23.1938C178.817 23.0836 179.023 23.0251 179.232 23.0249C179.659 23.0249 180.049 23.2665 180.24 23.6491L182.356 27.9217L187.092 28.6064C187.298 28.6368 187.492 28.7242 187.651 28.8586C187.811 28.993 187.929 29.1692 187.993 29.3673C188.058 29.5655 188.066 29.7778 188.017 29.9805C187.968 30.1831 187.863 30.368 187.715 30.5146L184.287 33.8373L185.096 38.5291C185.132 38.7359 185.109 38.9487 185.03 39.1432C184.951 39.3377 184.818 39.5062 184.648 39.6296C184.478 39.7524 184.277 39.825 184.068 39.8388C183.859 39.8527 183.65 39.8072 183.465 39.7078L179.231 37.4952L174.998 39.7078Z" fill="#FFB444"/>
</g>
<defs>
<clipPath id="clip0_621_3648">
<rect width="246" height="170" fill="white"/>
</clipPath>
</defs>
</svg>
