<svg width="676" height="622" viewBox="0 0 676 622" fill="none" xmlns="http://www.w3.org/2000/svg">
<g filter="url(#filter0_d_627_2972)">
<path d="M585.286 73.364H91.4889C82.4449 73.364 75.1133 80.6957 75.1133 89.7397V423.903C75.1133 432.947 82.4449 440.278 91.4889 440.278H585.286C594.33 440.278 601.662 432.947 601.662 423.903V89.7397C601.662 80.6957 594.33 73.364 585.286 73.364Z" fill="#263238"/>
<path d="M601.662 89.7397L601.585 88.591C601.564 88.1196 601.508 87.6504 601.419 87.187C601.324 86.5344 601.179 85.8901 600.985 85.2597C600.373 83.1263 599.332 81.1405 597.925 79.4242C596.518 77.7078 594.776 76.297 592.804 75.2786C591.429 74.5753 589.965 74.0642 588.451 73.7597C586.765 73.4821 585.054 73.3794 583.346 73.4534H571.488H541.915L353.461 73.5683H223.273H93.5183C91.9142 73.5048 90.3076 73.5902 88.7192 73.8235C87.1391 74.0915 85.6105 74.6039 84.1881 75.3424C81.3143 76.8174 78.949 79.1205 77.3979 81.9539C76.6451 83.3809 76.0952 84.906 75.7642 86.485C75.501 88.0961 75.3984 89.7293 75.4579 91.3607V121.393C75.4579 134.863 75.4579 148.478 75.4579 162.237V246.476C75.4579 303.721 75.4579 362.982 75.4579 423.686C75.4469 427.422 76.7442 431.043 79.1246 433.923C81.5049 436.802 84.8182 438.757 88.4895 439.449C90.3352 439.723 92.2032 439.817 94.0671 439.73H242.992H408.077H557.41H583.384C584.791 439.775 586.199 439.711 587.596 439.538C591.005 439.066 594.171 437.506 596.625 435.092C599.078 432.678 600.688 429.538 601.215 426.136C601.373 424.777 601.429 423.407 601.381 422.039C601.381 420.661 601.381 419.295 601.381 417.917V409.735C601.381 388.029 601.381 367.211 601.381 347.283C601.381 267.728 601.47 203.335 601.496 158.829C601.496 136.595 601.496 119.262 601.559 107.596C601.559 101.75 601.559 97.283 601.559 94.2708C601.559 91.2586 601.559 89.7397 601.559 89.7397C601.559 89.7397 601.559 91.2713 601.559 94.2708C601.559 97.2702 601.559 101.75 601.559 107.596C601.559 119.313 601.559 136.595 601.559 158.829C601.559 203.335 601.636 267.728 601.687 347.283C601.687 367.177 601.687 387.995 601.687 409.735C601.687 412.454 601.687 415.172 601.687 417.917V422.039C601.729 423.433 601.669 424.828 601.508 426.213C601.107 429.045 599.985 431.727 598.251 434.002C596.517 436.277 594.228 438.069 591.604 439.206C590.276 439.767 588.882 440.157 587.456 440.368C586.033 440.544 584.6 440.612 583.167 440.572H557.461H408.128H243.044H94.0927C92.1859 440.658 90.2752 440.56 88.3873 440.278C84.5459 439.554 81.0788 437.509 78.5868 434.497C76.0948 431.486 74.735 427.697 74.7431 423.788C74.7431 363.084 74.7431 303.81 74.7431 246.578C74.7431 217.963 74.7431 189.883 74.7431 162.339V91.4883C74.6882 89.8137 74.7994 88.1377 75.0749 86.485C75.4195 84.8398 75.9909 83.2505 76.7725 81.7625C78.4014 78.8128 80.8659 76.4104 83.8563 74.8574C85.3402 74.0939 86.9332 73.5644 88.5788 73.2875C90.205 73.0463 91.85 72.9566 93.4928 73.0194H150.788H223.286H353.474L541.928 73.1343H571.501H583.346C585.054 73.0765 586.765 73.1877 588.451 73.4661C589.982 73.7733 591.46 74.2977 592.842 75.0233C594.826 76.0556 596.577 77.4843 597.987 79.221C599.396 80.9576 600.434 82.9652 601.036 85.1193C601.223 85.75 601.359 86.3944 601.445 87.0466C601.531 87.5144 601.582 87.988 601.598 88.4633C601.662 89.344 601.662 89.7397 601.662 89.7397Z" fill="#263238"/>
<path d="M575.203 242.737C577.98 242.737 580.694 243.56 583.003 245.103C585.312 246.646 587.112 248.838 588.174 251.404C589.237 253.969 589.515 256.792 588.973 259.516C588.431 262.239 587.094 264.741 585.131 266.704C583.167 268.668 580.666 270.005 577.942 270.547C575.219 271.088 572.396 270.81 569.83 269.748C567.265 268.685 565.072 266.886 563.529 264.577C561.987 262.268 561.163 259.553 561.163 256.777C561.163 253.053 562.642 249.482 565.275 246.849C567.908 244.216 571.479 242.737 575.203 242.737Z" fill="#455A64"/>
<path d="M102.939 219.226V294.187C102.94 294.873 102.807 295.553 102.545 296.188C102.283 296.823 101.899 297.4 101.414 297.886C100.929 298.372 100.353 298.758 99.7191 299.021C99.0849 299.284 98.405 299.42 97.7184 299.42C97.0312 299.42 96.3507 299.284 95.7158 299.021C95.0809 298.758 94.504 298.373 94.0181 297.887C93.5321 297.401 93.1467 296.824 92.8837 296.189C92.6207 295.554 92.4854 294.874 92.4854 294.187V219.264C92.4854 217.877 93.0367 216.545 94.0181 215.564C94.9995 214.583 96.3305 214.031 97.7184 214.031C99.0985 214.031 100.422 214.578 101.401 215.551C102.379 216.525 102.932 217.846 102.939 219.226Z" fill="#455A64"/>
<path d="M552.406 85.2469H112.676V429.021H552.406V85.2469Z" fill="#EBEBEB"/>
<path d="M396.193 333.409L430.196 393.334L513.797 392.096L509.062 327.065L396.193 333.409Z" fill="#E0E0E0"/>
<path d="M285.687 131.043L273.408 225.761L298.769 231.811L348.356 226.884L339.255 123.41L285.687 131.043Z" fill="#E0E0E0"/>
<path d="M208.658 324.896H150.048V254.326L213.738 254.964L208.658 324.896Z" fill="#F5F5F5"/>
<path d="M449.941 327.066C449.941 325.062 460.267 254.964 460.267 254.964C460.267 254.964 500.677 243.898 500.83 245.481C500.983 247.064 508.871 325.202 508.871 325.202L449.941 327.066Z" fill="#F5F5F5"/>
<path d="M156.788 147.533C156.903 149.243 184.779 205.301 184.779 205.301L217.058 196.749V132.255L183.77 131.489L156.788 147.533Z" fill="#E0E0E0"/>
<path d="M353.908 264.498H309.273V285.558H353.908V264.498Z" fill="#E0E0E0"/>
<path d="M354.112 292.54L309.159 294.812L306.874 337.493L358.209 333.409L354.112 292.54Z" fill="#E0E0E0"/>
<path d="M534.181 213.393L527.939 126.754H552.292L552.407 211.67L534.181 213.393Z" fill="#E0E0E0"/>
<path d="M434.446 112.561L444.593 220.528L497.83 215.754L488.538 123.665L446.393 112.561H434.446Z" fill="#E0E0E0"/>
<path d="M189.845 131.872L112.982 130.711L113.059 125.605L185.684 126.703L194.069 85.2852L199.085 86.2936L189.845 131.872Z" fill="white"/>
<path d="M149.679 215.269L112.435 131.745L113.596 131.221L150.406 213.751L216.904 196.124L217.223 197.362L149.679 215.269Z" fill="white"/>
<path d="M213.752 253.688H113.034V256.24H213.752V253.688Z" fill="white"/>
<path d="M150.674 214.516H149.397V324.909H150.674V214.516Z" fill="white"/>
<path d="M209.003 324.334H113.034V325.611H209.003V324.334Z" fill="white"/>
<path d="M204.025 424.771L112.625 404.604L113.723 399.614L199.366 418.517L214.057 214.108L216.265 129.09L219.699 85.5916L224.779 85.9872L221.358 129.422L219.163 214.363L204.025 424.771Z" fill="white"/>
<path d="M218.601 134.974L187.509 131.834L188.032 126.754L215.512 129.536L220.056 119.836L261.014 129.766L445.193 108.77L509.355 125.439L552.215 124.201L552.368 129.294L508.781 130.57L444.822 113.952L260.695 134.935L222.915 125.784L218.601 134.974Z" fill="white"/>
<path d="M432.735 331.035L427.668 330.371L442.014 220.502L430.987 112.663V85.2469H436.092V112.535L447.158 220.566L432.735 331.035Z" fill="white"/>
<path d="M206.488 346.147L206.182 341.054L507.236 322.751L548.207 239.329L552.789 241.575L510.516 327.665L509.036 327.755L206.488 346.147Z" fill="white"/>
<path d="M357.227 336.485L337.979 123.525L336.933 85.8341L339.485 85.7575L340.532 123.385L359.767 336.255L357.227 336.485Z" fill="white"/>
<path d="M316.816 427.655L294.557 336.753V233.93L269.502 227.701L280.377 130.098L279.368 85.298L284.474 85.1831L285.495 130.328L285.482 130.494L275.067 223.821L299.662 229.948V336.128L321.782 426.443L316.816 427.655Z" fill="white"/>
<path d="M297.11 254.326H213.738V255.602H297.11V254.326Z" fill="white"/>
<path d="M216.725 213.659L216.468 214.909L272.15 226.369L272.407 225.119L216.725 213.659Z" fill="white"/>
<path d="M296.969 297.224L277.16 292.846V254.964H278.437V291.825L297.25 295.973L296.969 297.224Z" fill="white"/>
<path d="M266.044 427.591L254.914 391.866H203.975V386.761H258.666L270.92 426.073L266.044 427.591Z" fill="white"/>
<path d="M429.825 393.985L395.645 333.715L396.755 333.09L430.566 392.696L552.126 390.883L552.151 392.16L429.825 393.985Z" fill="white"/>
<path d="M489.636 393.334H488.359V427.745H489.636V393.334Z" fill="white"/>
<path d="M513.16 392.147L508.424 327.117L484.021 85.3107L485.297 85.1831L509.701 327.002L514.436 392.045L513.16 392.147Z" fill="white"/>
<path d="M552.361 211.009L297.063 231.28L297.165 232.553L552.462 212.281L552.361 211.009Z" fill="white"/>
<path d="M529.2 128.855L526.657 129.084L534.239 213.532L536.781 213.304L529.2 128.855Z" fill="white"/>
<path d="M532.102 176.296L494.697 185.552L495.004 186.791L532.409 177.535L532.102 176.296Z" fill="white"/>
<path d="M515.661 180.552L509.036 143.002L490.363 141.024L490.491 139.76L510.121 141.841L516.912 180.323L515.661 180.552Z" fill="white"/>
<path d="M389.244 119.052L386.7 119.27L395.566 222.684L398.109 222.466L389.244 119.052Z" fill="white"/>
<path d="M438.834 175.597L393.598 185.551L393.872 186.797L439.109 176.843L438.834 175.597Z" fill="white"/>
<path d="M428.961 393.184L424.313 429.211L426.845 429.537L431.492 393.511L428.961 393.184Z" fill="white"/>
<path d="M218.818 257.134L213.738 336.37L292.936 332.516V301.424L272.195 296.841V260.542L218.818 257.134Z" fill="#E0E0E0"/>
<path d="M197.005 276.432C197.006 273.666 196.37 270.937 195.146 268.456C193.921 265.976 192.141 263.811 189.944 262.13C187.747 260.449 185.192 259.297 182.478 258.764C179.763 258.23 176.962 258.33 174.293 259.055C171.623 259.78 169.156 261.11 167.084 262.943C165.012 264.776 163.391 267.062 162.346 269.623C161.3 272.185 160.86 274.952 161.058 277.712C161.256 280.471 162.088 283.147 163.488 285.533V285.597C164.177 286.758 165.032 287.588 165.913 288.813L176.354 302.649C176.657 303.051 177.049 303.377 177.5 303.601C177.951 303.825 178.447 303.942 178.951 303.942C179.454 303.942 179.951 303.825 180.402 303.601C180.852 303.377 181.245 303.051 181.548 302.649L191.759 289.043C192.693 287.938 193.567 286.783 194.376 285.584C196.064 282.827 196.972 279.665 197.005 276.432ZM179.008 284.269C177.44 284.272 175.905 283.809 174.6 282.939C173.295 282.069 172.277 280.831 171.675 279.382C171.074 277.933 170.916 276.339 171.221 274.8C171.527 273.261 172.282 271.848 173.391 270.738C174.5 269.629 175.914 268.874 177.452 268.569C178.991 268.263 180.586 268.421 182.035 269.023C183.484 269.624 184.721 270.642 185.591 271.948C186.461 273.253 186.924 274.787 186.922 276.356C186.918 278.454 186.084 280.464 184.6 281.948C183.117 283.431 181.106 284.266 179.008 284.269Z" fill="#FE8E27"/>
<path d="M366.365 213.112C366.372 210.344 365.74 207.61 364.518 205.126C363.296 202.641 361.517 200.472 359.32 198.787C357.123 197.102 354.566 195.947 351.85 195.412C349.133 194.876 346.33 194.974 343.658 195.699C340.985 196.424 338.516 197.756 336.443 199.591C334.369 201.426 332.747 203.714 331.702 206.278C330.657 208.842 330.219 211.613 330.42 214.375C330.621 217.136 331.456 219.814 332.861 222.2V222.277C333.55 223.438 334.418 224.268 335.299 225.493L345.765 239.303C346.068 239.705 346.461 240.031 346.911 240.255C347.362 240.48 347.859 240.597 348.362 240.597C348.866 240.597 349.362 240.48 349.813 240.255C350.264 240.031 350.656 239.705 350.96 239.303L361.26 225.71C362.175 224.606 363.028 223.451 363.813 222.251C365.471 219.491 366.353 216.333 366.365 213.112ZM348.369 220.949C346.801 220.949 345.269 220.484 343.965 219.613C342.662 218.742 341.646 217.505 341.046 216.056C340.446 214.608 340.289 213.014 340.595 211.477C340.901 209.939 341.656 208.527 342.764 207.418C343.872 206.31 345.285 205.555 346.822 205.249C348.36 204.943 349.954 205.1 351.402 205.7C352.85 206.3 354.088 207.316 354.959 208.619C355.83 209.923 356.295 211.455 356.295 213.023C356.295 214.065 356.089 215.097 355.69 216.059C355.291 217.022 354.706 217.896 353.969 218.632C353.231 219.368 352.356 219.952 351.393 220.35C350.43 220.747 349.398 220.951 348.356 220.949H348.369Z" fill="#FE8E27"/>
<path d="M291.648 369.007C291.654 367.107 291.221 365.232 290.384 363.527C289.547 361.821 288.327 360.333 286.82 359.176C285.313 358.019 283.56 357.226 281.696 356.858C279.833 356.49 277.909 356.557 276.076 357.055C274.242 357.552 272.548 358.465 271.126 359.724C269.703 360.983 268.59 362.553 267.874 364.312C267.158 366.072 266.857 367.973 266.996 369.867C267.134 371.762 267.708 373.599 268.673 375.235C269.145 376.027 269.745 376.601 270.345 377.431L277.506 386.927C277.714 387.199 277.983 387.42 278.29 387.572C278.598 387.724 278.936 387.803 279.28 387.803C279.623 387.803 279.961 387.724 280.269 387.572C280.577 387.42 280.845 387.199 281.054 386.927L288.099 377.596C288.741 376.837 289.341 376.045 289.899 375.222C291.026 373.344 291.63 371.197 291.648 369.007ZM279.305 374.38C278.229 374.383 277.177 374.066 276.281 373.47C275.385 372.874 274.686 372.026 274.273 371.032C273.859 370.039 273.75 368.945 273.958 367.89C274.166 366.834 274.683 365.864 275.443 365.103C276.203 364.341 277.172 363.822 278.227 363.611C279.282 363.4 280.376 363.507 281.37 363.918C282.365 364.329 283.214 365.026 283.812 365.921C284.411 366.815 284.73 367.867 284.73 368.943C284.731 369.656 284.592 370.363 284.32 371.023C284.049 371.682 283.649 372.282 283.145 372.787C282.642 373.292 282.043 373.693 281.384 373.966C280.725 374.239 280.019 374.38 279.305 374.38Z" fill="#FE8E27"/>
<path d="M515.533 144.98C515.52 141.906 514.359 138.947 512.279 136.683C510.199 134.419 507.349 133.013 504.287 132.74C501.224 132.466 498.17 133.346 495.722 135.207C493.274 137.067 491.609 139.774 491.052 142.798C490.525 145.691 491.06 148.678 492.558 151.209C493.031 152 493.63 152.575 494.23 153.417L501.391 162.9C501.599 163.173 501.868 163.394 502.175 163.546C502.483 163.698 502.822 163.777 503.165 163.777C503.508 163.777 503.847 163.698 504.154 163.546C504.462 163.394 504.73 163.173 504.939 162.9L511.984 153.57C512.626 152.811 513.227 152.019 513.784 151.196C514.911 149.317 515.515 147.171 515.533 144.98ZM503.19 150.354C502.114 150.356 501.061 150.039 500.165 149.443C499.269 148.846 498.57 147.997 498.157 147.003C497.744 146.009 497.635 144.915 497.844 143.859C498.054 142.803 498.572 141.833 499.333 141.072C500.094 140.311 501.064 139.793 502.12 139.583C503.176 139.374 504.27 139.483 505.264 139.896C506.258 140.309 507.107 141.008 507.704 141.904C508.3 142.8 508.617 143.853 508.615 144.929C508.615 146.368 508.043 147.748 507.026 148.765C506.009 149.782 504.629 150.354 503.19 150.354Z" fill="#FE8E27"/>
<path d="M252.769 150.852C252.773 147.488 252.001 144.169 250.514 141.153C249.026 138.136 246.863 135.503 244.193 133.458C241.522 131.413 238.416 130.011 235.116 129.362C231.816 128.713 228.41 128.833 225.164 129.714C221.918 130.594 218.919 132.212 216.399 134.44C213.88 136.668 211.908 139.447 210.637 142.562C209.366 145.676 208.831 149.041 209.072 152.396C209.313 155.751 210.325 159.005 212.028 161.905L212.092 161.982C212.921 163.398 213.981 164.407 215.04 165.887L227.74 182.722C228.109 183.209 228.585 183.604 229.132 183.875C229.679 184.147 230.282 184.288 230.892 184.288C231.503 184.288 232.105 184.147 232.652 183.875C233.199 183.604 233.676 183.209 234.045 182.722L246.541 166.13C247.679 164.787 248.74 163.381 249.719 161.918C251.704 158.567 252.757 154.746 252.769 150.852ZM230.88 160.373C228.973 160.373 227.11 159.808 225.525 158.748C223.94 157.689 222.704 156.183 221.975 154.422C221.246 152.66 221.056 150.722 221.429 148.852C221.802 146.983 222.721 145.266 224.07 143.918C225.419 142.571 227.137 141.654 229.007 141.284C230.878 140.914 232.816 141.106 234.576 141.838C236.337 142.569 237.841 143.806 238.898 145.392C239.956 146.979 240.519 148.843 240.516 150.75C240.513 153.303 239.496 155.751 237.689 157.555C235.882 159.36 233.433 160.373 230.88 160.373Z" fill="#FE8E27"/>
<path d="M356.537 358.279C356.537 358.279 356.537 403.155 355.975 405.683C355.414 408.21 354.099 421.663 357.379 427.904C360.659 434.145 368.458 446.794 375.248 448.555C382.038 450.317 385.88 448.555 385.88 448.555C385.88 448.555 390.054 419.327 388.688 410.941C387.323 402.555 384.221 384.252 384.221 384.252L363.187 360.385L356.537 358.279Z" fill="#FFBE9D"/>
<path d="M409.403 296.682L429.225 290.593L466.712 288.092L489.393 292.393L464.759 331.871L429.225 329.191L409.403 296.682Z" fill="#FFBE9D"/>
<path d="M487.873 215.212C488.083 224.703 486.281 234.131 482.585 242.876C478.889 251.62 473.383 259.483 466.43 265.947C463.231 256.698 460.036 247.44 456.845 238.173" fill="#263238"/>
<path d="M415.606 159.971C423.838 155.478 433.781 154.866 442.971 156.678C452.161 158.49 460.738 162.677 468.855 167.374C473.399 170.003 477.943 172.901 481.223 177.023C487.197 184.541 493.093 196.883 493.681 206.469C494.14 214.216 491.128 233.617 487.899 240.662C484.886 247.121 470.821 252.035 463.878 253.63L400.2 179.525C401.344 175.407 403.295 171.558 405.94 168.201C408.584 164.844 411.87 162.047 415.606 159.971Z" fill="#35232E"/>
<path d="M404.617 170.003L419.933 167.272C411.586 187.157 409.327 232.621 404.54 253.656C398.912 245.487 385.842 220.611 386.544 210.706C387.246 200.802 386.467 168.28 404.617 170.003Z" fill="#35232E"/>
<path d="M477.05 203.074C476.778 197.497 474.724 192.154 471.191 187.83C467.657 183.507 462.831 180.43 457.42 179.053L422.243 170.118C407.042 168.484 396.882 187.183 395.886 202.448C394.789 219.398 394.1 237.28 396.078 249.941C400.06 275.379 419.55 278.672 419.55 278.672C419.55 278.672 419.55 290.772 419.55 298.201L450.974 323.102L469.251 294.525L477.114 203.431C477.139 202.946 477.088 203.648 477.05 203.074Z" fill="#FFBE9D"/>
<path d="M403.532 221.606C403.522 222.458 403.844 223.28 404.431 223.897C405.017 224.515 405.821 224.879 406.672 224.912C407.087 224.945 407.505 224.895 407.9 224.764C408.295 224.634 408.66 224.426 408.974 224.153C409.288 223.879 409.544 223.546 409.728 223.172C409.911 222.798 410.018 222.392 410.042 221.976C410.053 221.125 409.73 220.303 409.144 219.685C408.557 219.068 407.753 218.704 406.902 218.671C406.487 218.636 406.069 218.685 405.673 218.815C405.277 218.944 404.911 219.152 404.597 219.426C404.282 219.7 404.026 220.034 403.843 220.408C403.661 220.783 403.555 221.19 403.532 221.606Z" fill="#263238"/>
<path d="M399.703 212.353C400.111 212.787 402.587 210.962 406.084 210.974C409.582 210.987 412.16 212.761 412.543 212.327C412.734 212.136 412.326 211.37 411.203 210.553C409.687 209.495 407.881 208.933 406.033 208.945C404.203 208.929 402.414 209.497 400.928 210.566C399.881 211.395 399.511 212.123 399.703 212.353Z" fill="#263238"/>
<path d="M434.139 221.606C434.131 222.444 434.446 223.252 435.019 223.863C435.592 224.474 436.379 224.84 437.215 224.886C437.63 224.921 438.048 224.872 438.444 224.743C438.84 224.613 439.206 224.405 439.52 224.131C439.835 223.857 440.091 223.523 440.273 223.149C440.456 222.774 440.562 222.367 440.584 221.951C440.598 221.1 440.279 220.278 439.695 219.661C439.11 219.043 438.307 218.678 437.457 218.645C437.044 218.617 436.63 218.673 436.238 218.807C435.846 218.942 435.485 219.153 435.176 219.429C434.867 219.704 434.616 220.039 434.438 220.413C434.26 220.787 434.158 221.192 434.139 221.606Z" fill="#263238"/>
<path d="M433.042 212.353C433.45 212.787 435.926 210.961 439.423 210.974C442.921 210.987 445.512 212.761 445.882 212.327C446.073 212.136 445.665 211.37 444.542 210.553C443.026 209.495 441.22 208.933 439.372 208.945C437.542 208.931 435.754 209.498 434.267 210.566C433.22 211.395 432.85 212.123 433.042 212.353Z" fill="#263238"/>
<path d="M422.077 239.935C422.077 239.731 419.908 239.348 416.372 238.888C415.479 238.799 414.624 238.607 414.483 238.007C414.405 237.078 414.615 236.147 415.083 235.34L417.751 228.524C421.452 218.811 424.132 210.834 423.75 210.655C423.367 210.476 420.035 218.313 416.334 227.975L413.781 234.842C413.224 235.923 413.057 237.163 413.309 238.352C413.444 238.663 413.647 238.939 413.903 239.16C414.159 239.381 414.462 239.541 414.789 239.628C415.284 239.767 415.795 239.84 416.308 239.845C419.857 240.113 422.065 240.126 422.077 239.935Z" fill="#263238"/>
<path d="M453.297 269.559C453.297 269.559 445.013 287.032 419.562 284.595V278.621C431.429 278.782 443.108 275.644 453.297 269.559Z" fill="#EB996E"/>
<path d="M434.152 199.666C434.497 200.623 437.981 200.176 442.117 200.687C446.252 201.197 449.558 202.321 450.107 201.465C450.362 201.057 449.775 200.189 448.434 199.232C446.653 198.079 444.623 197.366 442.512 197.151C440.409 196.885 438.272 197.13 436.284 197.866C434.765 198.466 433.999 199.219 434.152 199.666Z" fill="#263238"/>
<path d="M400.851 201.619C401.464 202.423 403.889 201.619 406.799 201.619C409.709 201.619 412.173 202.167 412.734 201.325C412.99 200.929 412.594 200.125 411.522 199.372C410.08 198.46 408.4 197.998 406.694 198.046C404.989 198.093 403.337 198.649 401.949 199.64C400.915 200.406 400.583 201.223 400.851 201.619Z" fill="#263238"/>
<path d="M402.754 179.155C404.311 175.326 408.51 173.028 412.633 172.773C416.79 172.766 420.861 173.953 424.362 176.193C439.513 184.949 447.337 206.098 462.27 215.161C465.959 217.394 470.745 215.352 473.872 218.3C476.999 221.249 479.042 225.959 477.306 229.903C479.45 227.24 481.2 224.283 482.501 221.121C483.143 219.534 483.438 217.828 483.365 216.117C483.292 214.406 482.854 212.731 482.079 211.204C480.803 208.958 478.493 207.247 477.867 204.733C477.319 202.525 478.186 200.214 478.097 197.93C477.839 195.615 477.039 193.393 475.761 191.446C469.903 181.069 461.836 171.701 451.447 165.919C444.671 161.994 436.952 159.995 429.123 160.137C421.263 160.323 413.73 163.315 407.885 168.574C404.528 171.688 401.018 174.955 402.779 179.155" fill="#35232E"/>
<path d="M473.565 221.504C473.833 220.777 487.095 215.99 487.273 230.094C487.439 243.789 473.616 241.096 473.591 240.701C473.565 240.305 473.565 221.504 473.565 221.504Z" fill="#FFBE9D"/>
<path d="M477.765 235.468C477.828 235.468 478.007 235.633 478.416 235.812C478.989 236.041 479.629 236.041 480.202 235.812C481.645 235.263 482.844 232.953 482.883 230.49C482.911 229.311 482.671 228.141 482.181 227.069C482.048 226.643 481.814 226.255 481.498 225.939C481.182 225.624 480.795 225.389 480.368 225.257C480.092 225.199 479.805 225.233 479.551 225.356C479.297 225.478 479.091 225.681 478.964 225.933C478.786 226.316 478.875 226.584 478.811 226.61C478.747 226.635 478.505 226.38 478.62 225.818C478.687 225.476 478.872 225.169 479.143 224.95C479.509 224.676 479.964 224.548 480.419 224.593C480.989 224.692 481.524 224.937 481.971 225.304C482.418 225.671 482.763 226.147 482.972 226.686C483.573 227.871 483.871 229.187 483.84 230.515C483.84 233.272 482.385 235.876 480.407 236.463C480.04 236.573 479.654 236.599 479.276 236.539C478.898 236.48 478.539 236.336 478.224 236.119C477.803 235.799 477.726 235.493 477.765 235.468Z" fill="#EB996E"/>
<path d="M479.016 214.459C478.724 214.334 478.446 214.18 478.186 213.999C477.663 213.667 476.846 213.221 475.888 212.544C473.193 210.562 470.712 208.303 468.486 205.805C465.256 202.059 462.239 198.134 459.449 194.05C456.073 189.066 452.29 184.37 448.14 180.01C445.921 177.834 443.473 175.904 440.84 174.253C438.366 172.741 435.717 171.537 432.952 170.667C428.27 169.162 423.346 168.56 418.44 168.893C415.128 169.091 411.857 169.73 408.714 170.795C407.591 171.139 406.761 171.509 406.161 171.739C405.869 171.869 405.566 171.972 405.255 172.045C405.529 171.884 405.815 171.743 406.11 171.624C406.937 171.216 407.79 170.862 408.663 170.565C411.805 169.399 415.097 168.686 418.44 168.446C423.407 168.056 428.403 168.624 433.156 170.118C435.968 170.988 438.664 172.197 441.184 173.717C443.858 175.395 446.344 177.355 448.6 179.563C452.78 183.959 456.572 188.707 459.934 193.756C462.702 197.842 465.685 201.779 468.869 205.55C471.043 208.056 473.458 210.344 476.08 212.378C477.024 213.093 477.803 213.565 478.301 213.935C478.553 214.09 478.792 214.265 479.016 214.459Z" fill="#455A64"/>
<path d="M479.335 237.893C480.008 237.775 480.7 237.918 481.272 238.292C481.843 238.666 482.251 239.243 482.414 239.906C482.576 240.57 482.48 241.27 482.145 241.865C481.811 242.461 481.262 242.907 480.611 243.113C479.953 243.343 479.23 243.308 478.597 243.016C477.963 242.724 477.468 242.197 477.215 241.547C476.962 240.897 476.971 240.174 477.24 239.531C477.509 238.887 478.018 238.373 478.659 238.097" fill="white"/>
<path d="M478.684 238.097C478.079 238.562 477.633 239.205 477.408 239.935C477.309 240.31 477.306 240.705 477.399 241.082C477.493 241.459 477.68 241.806 477.944 242.092C478.251 242.45 478.658 242.71 479.113 242.839C479.567 242.967 480.049 242.959 480.499 242.814C480.949 242.67 481.346 242.396 481.641 242.027C481.936 241.657 482.115 241.209 482.156 240.739C482.203 240.356 482.154 239.968 482.013 239.61C481.873 239.251 481.646 238.933 481.352 238.684C480.754 238.216 480.029 237.94 479.271 237.893C479.271 237.893 479.488 237.752 479.922 237.739C480.312 237.745 480.697 237.831 481.053 237.991C481.409 238.151 481.728 238.382 481.991 238.671C482.254 238.959 482.455 239.298 482.582 239.666C482.71 240.035 482.76 240.426 482.73 240.815C482.688 241.404 482.47 241.966 482.105 242.429C481.74 242.893 481.245 243.236 480.682 243.414C480.12 243.593 479.518 243.599 478.952 243.432C478.386 243.264 477.884 242.931 477.51 242.475C477.2 242.116 476.987 241.683 476.893 241.218C476.8 240.753 476.827 240.271 476.974 239.82C477.156 239.227 477.523 238.709 478.02 238.339C478.442 238.097 478.671 238.058 478.684 238.097Z" fill="#263238"/>
<path d="M475.569 218.339C475.786 222.079 475.952 225.997 474.229 229.354C472.506 232.711 468.128 234.944 464.886 233.081C462.231 231.575 461.427 228.167 460.98 225.142C459.704 216.424 459.091 207.592 457.713 198.874L475.569 218.339Z" fill="#382637"/>
<path d="M406.174 172.645C406.174 172.722 407.386 172.415 409.582 172.339C412.682 172.289 415.762 172.853 418.644 173.998C420.634 174.771 422.538 175.75 424.324 176.921C426.366 178.299 428.326 179.795 430.195 181.401C434.504 185.05 438.36 189.203 441.682 193.769C443.431 196.207 444.975 198.721 446.634 201.057C448.217 203.323 450.063 205.393 452.135 207.222C455.68 210.245 459.565 212.845 463.712 214.969C467.222 216.833 470.094 218.122 472.174 219.028L474.51 220.024C474.778 220.154 475.061 220.252 475.352 220.317C475.113 220.139 474.851 219.993 474.574 219.883L472.302 218.747C470.311 217.777 467.426 216.399 463.967 214.497C459.91 212.316 456.101 209.701 452.608 206.698C450.592 204.886 448.797 202.842 447.26 200.61C445.613 198.313 444.069 195.798 442.32 193.322C438.966 188.7 435.052 184.512 430.667 180.852C428.773 179.243 426.783 177.751 424.707 176.385C422.871 175.206 420.91 174.235 418.861 173.488C415.907 172.363 412.75 171.872 409.594 172.045C408.736 172.091 407.882 172.206 407.042 172.39C406.743 172.44 406.452 172.525 406.174 172.645Z" fill="#455A64"/>
<path d="M475.94 209.877C476.332 210.199 476.76 210.473 477.217 210.693L480.688 212.736L481.863 213.399C482.319 213.671 482.828 213.84 483.356 213.897C483.682 213.929 484.009 213.853 484.288 213.68C484.432 213.573 484.552 213.437 484.64 213.281C484.728 213.125 484.782 212.952 484.798 212.774C484.764 212.142 484.537 211.536 484.147 211.038C482.871 209.06 481.595 206.89 480.127 204.592L479.578 205.103C482.263 207.081 485.553 208.061 488.883 207.873C489.317 207.871 489.748 207.797 490.159 207.656C490.392 207.589 490.608 207.472 490.791 207.314C490.974 207.155 491.12 206.958 491.218 206.737C491.298 206.504 491.318 206.255 491.278 206.012C491.238 205.77 491.139 205.54 490.989 205.345C490.755 205.038 490.495 204.752 490.21 204.49C488.404 202.74 486.833 200.762 485.539 198.606C484.402 196.574 483.412 194.462 482.578 192.288C482.636 192.922 482.782 193.545 483.011 194.139C483.539 195.781 484.228 197.367 485.066 198.874C486.324 201.122 487.888 203.184 489.712 205.001C490.223 205.486 490.733 206.035 490.529 206.469C490.325 206.903 489.597 207.12 488.87 207.12C485.717 207.272 482.605 206.345 480.05 204.49L478.417 203.291L479.514 205.001L483.624 211.383C483.931 211.746 484.13 212.188 484.198 212.659C484.192 212.751 484.165 212.84 484.121 212.92C484.076 213 484.015 213.07 483.941 213.125C483.867 213.179 483.782 213.217 483.692 213.236C483.602 213.255 483.509 213.254 483.42 213.233C482.54 213.065 481.702 212.722 480.957 212.225L477.37 210.387C476.917 210.157 476.437 209.985 475.94 209.877Z" fill="#455A64"/>
<path d="M435.428 246.406C435.17 245.363 434.556 244.444 433.691 243.807C432.825 243.171 431.765 242.857 430.693 242.921C429.911 243.024 429.167 243.316 428.524 243.772C427.881 244.228 427.359 244.834 427.004 245.538C426.668 246.25 426.477 247.022 426.442 247.809C426.407 248.595 426.529 249.381 426.8 250.12L426.876 250.452C427.604 251.244 428.559 251.791 429.61 252.019C430.661 252.248 431.757 252.146 432.748 251.728C433.719 251.261 434.508 250.485 434.993 249.523C435.477 248.56 435.63 247.464 435.428 246.406Z" fill="#E65769"/>
<path d="M424.324 250.529C424.324 249.993 427.872 250.158 430.552 247.248C433.233 244.338 433.016 240.535 433.514 240.535C433.743 240.535 434.165 241.415 434.126 243.011C434.052 245.092 433.248 247.08 431.854 248.627C430.52 250.128 428.65 251.044 426.647 251.18C425.153 251.205 424.298 250.771 424.324 250.529Z" fill="#263238"/>
<path d="M384.246 441.127L385.905 450.789L384.348 456.048C384.348 456.048 368.304 476.469 363.16 491.505C358.017 506.54 357.621 546.146 357.621 546.146L540.395 546.031C540.395 546.031 534.014 487.203 511.039 468.684V464.459L516.719 456.048C516.719 456.048 518.634 449.538 510.337 450.508C507.044 450.891 384.246 441.127 384.246 441.127Z" fill="#455A64"/>
<path d="M512.061 463.029H510.784L507.07 462.94C503.854 462.863 499.195 462.799 493.426 462.838C487.657 462.876 480.803 463.004 473.183 463.157C465.563 463.31 457.19 463.463 448.383 463.323C440.104 463.21 431.836 462.682 423.609 461.74C416.891 460.966 410.231 459.751 403.673 458.102C399.252 457.001 394.9 455.637 390.641 454.018C389.122 453.469 387.986 452.933 387.195 452.614L386.314 452.218C386.11 452.129 386.008 452.078 386.021 452.065L386.34 452.155L387.246 452.487C388.05 452.767 389.199 453.265 390.73 453.763C395.014 455.264 399.372 456.542 403.787 457.592C410.341 459.165 416.987 460.325 423.686 461.064C431.242 461.944 439.602 462.429 448.396 462.595C457.19 462.761 465.55 462.595 473.17 462.48C480.79 462.366 487.657 462.263 493.426 462.302C499.195 462.34 503.867 462.455 507.083 462.621C508.691 462.685 509.942 462.774 510.784 462.838L511.755 462.914C511.959 462.991 512.074 463.016 512.061 463.029Z" fill="#263238"/>
<path d="M512.061 471.504C511.955 471.524 511.847 471.524 511.742 471.504H510.772L507.058 471.415C503.841 471.338 499.182 471.275 493.413 471.313C487.644 471.351 480.79 471.479 473.17 471.632C465.55 471.785 457.178 471.938 448.371 471.798C439.564 471.657 431.178 471.121 423.597 470.215C416.878 469.441 410.218 468.226 403.66 466.577C399.238 465.473 394.887 464.104 390.628 462.48C389.109 461.932 387.973 461.408 387.182 461.089L386.301 460.694C386.097 460.604 385.995 460.553 386.008 460.54L386.327 460.63L387.233 460.962C388.037 461.242 389.186 461.727 390.718 462.238C395.001 463.74 399.359 465.018 403.775 466.067C410.328 467.64 416.974 468.8 423.673 469.539C431.229 470.419 439.589 470.904 448.383 471.07C457.178 471.236 465.538 471.07 473.158 470.955C480.777 470.841 487.644 470.738 493.413 470.777C499.182 470.815 503.854 470.93 507.07 471.096C508.679 471.16 509.929 471.249 510.772 471.313L511.742 471.389C511.959 471.479 512.074 471.491 512.061 471.504Z" fill="#263238"/>
<path d="M392.07 481.434C392.172 480.531 392.413 479.648 392.785 478.818C393.542 476.762 394.508 474.791 395.67 472.934C396.818 471.072 398.152 469.331 399.652 467.739C400.233 467.039 400.917 466.432 401.681 465.939C401.834 466.08 398.873 468.977 396.231 473.278C393.589 477.58 392.262 481.434 392.07 481.434Z" fill="#263238"/>
<path d="M398.568 493.19C398.487 492.838 398.465 492.476 398.504 492.117C398.514 491.14 398.578 490.165 398.695 489.195C399.085 485.992 399.777 482.834 400.763 479.762C401.728 476.695 402.931 473.708 404.362 470.828C404.898 469.604 405.561 468.441 406.341 467.356C405.897 468.608 405.377 469.831 404.783 471.019C403.5 473.936 402.371 476.918 401.401 479.954C400.43 482.996 399.683 486.106 399.167 489.258C398.772 491.645 398.67 493.202 398.568 493.19Z" fill="#263238"/>
<path d="M402.894 446.973C403.084 447.552 403.209 448.152 403.264 448.76C403.563 450.182 403.964 451.581 404.464 452.946C405.6 456.162 407.118 458.524 407.016 458.626C405.575 457.071 404.509 455.207 403.902 453.176C403.371 451.776 403.024 450.313 402.868 448.823C402.722 448.214 402.731 447.578 402.894 446.973Z" fill="#263238"/>
<path d="M408.306 450.802C408.958 452.133 409.414 453.552 409.659 455.014C410.122 456.423 410.367 457.895 410.386 459.379C409.263 456.641 408.562 453.749 408.306 450.802Z" fill="#263238"/>
<path d="M440.968 449.525C441.41 453.854 441.41 458.216 440.968 462.544C440.525 458.216 440.525 453.854 440.968 449.525Z" fill="#263238"/>
<path d="M445.052 452.857C446.007 456.121 445.917 459.602 444.797 462.812C444.605 462.812 444.975 460.566 445.039 457.835C445.103 455.103 444.873 452.882 445.052 452.857Z" fill="#263238"/>
<path d="M456.092 482.991C455.621 481.152 455.263 479.285 455.02 477.401C454.555 475.554 454.214 473.678 453.999 471.785C454.861 473.507 455.426 475.363 455.671 477.273C456.139 479.141 456.282 481.075 456.092 482.991Z" fill="#263238"/>
<path d="M346.594 355.726C346.237 354.564 359.664 316.159 367.628 310.339C375.593 304.518 411.548 296.184 411.548 296.184C411.548 296.184 426.685 311.117 446.979 308.016C467.273 304.914 482.858 290.593 482.858 290.593C482.858 290.593 521.263 295.622 527.786 300.268C534.308 304.914 552.036 347.021 552.036 347.021L520.74 373.097L517.97 396.71C517.97 396.71 519.425 445.888 516.158 450.929C512.89 455.971 384.999 443.144 384.999 443.144C384.999 443.144 378.477 441.982 383.544 430.38C388.612 418.778 392.249 411.018 392.249 411.018C392.249 411.018 383.187 400.947 381.732 383.129C380.277 365.311 376.716 363.397 376.716 363.397L346.594 355.726Z" fill="#FF8E5E"/>
<path d="M517.804 395.803C517.613 395.803 519.54 379.772 522.105 360.065C524.671 340.359 526.879 324.327 527.058 324.391C527.236 324.455 525.284 340.41 522.731 360.18C520.178 379.951 517.983 395.829 517.804 395.803Z" fill="#263238"/>
<path d="M380.723 369.932C380.557 369.996 378.171 364.252 375.375 357.092C372.58 349.931 370.474 344.086 370.64 344.022C370.806 343.958 373.193 349.702 376.001 356.849C378.809 363.997 380.902 369.868 380.723 369.932Z" fill="#263238"/>
<g opacity="0.3">
<path d="M421.273 390.392C420.694 387.066 419.31 383.933 417.24 381.266C414.24 377.871 409.492 376.428 404.974 376.454C400.444 376.695 395.971 377.576 391.687 379.07L383.531 391.834C383.797 392.605 384.234 393.306 384.809 393.885C385.383 394.464 386.081 394.906 386.85 395.178C388.386 395.713 389.997 396.001 391.623 396.033C400.064 396.646 408.505 396.999 416.946 397.093C418.036 397.206 419.135 397.002 420.112 396.506C421.899 395.255 421.771 392.536 421.273 390.392Z" fill="black"/>
</g>
<path d="M365.535 331.871C365.807 332.291 366.029 332.74 366.199 333.211C366.595 334.079 367.131 335.355 367.769 336.951C369.045 340.129 370.755 344.609 372.479 349.497C374.202 354.386 375.631 358.955 376.588 362.261C377.073 363.895 377.456 365.235 377.686 366.166C377.85 366.636 377.953 367.125 377.992 367.621C377.762 367.182 377.578 366.72 377.444 366.243L376.167 362.414C375.095 359.159 373.614 354.666 371.879 349.74C370.143 344.813 368.535 340.359 367.36 337.142C366.812 335.636 366.352 334.36 365.982 333.313C365.776 332.852 365.626 332.367 365.535 331.871Z" fill="#263238"/>
<path d="M365.471 335.93L379.779 388.12C380.028 388.974 380.552 389.722 381.27 390.248C381.988 390.774 382.859 391.049 383.748 391.03H414.776C415.374 391.05 415.968 390.935 416.514 390.692C417.06 390.449 417.544 390.085 417.929 389.627C418.313 389.17 418.589 388.631 418.735 388.052C418.881 387.472 418.894 386.867 418.771 386.282L406.225 334.117C405.995 333.237 405.477 332.461 404.752 331.912C404.027 331.363 403.139 331.074 402.23 331.092H369.427C368.823 331.072 368.222 331.191 367.672 331.441C367.121 331.691 366.635 332.064 366.252 332.532C365.87 333 365.6 333.55 365.464 334.139C365.329 334.729 365.331 335.341 365.471 335.93Z" fill="#263238"/>
<path d="M376.243 345.681C376.243 345.681 372.542 343.92 369.619 345.681C366.696 347.442 361.961 355.228 361.961 355.228L359.038 367.609L361.042 384.431L361.833 392.23L380.723 394.374V388.133L402.358 371.961C402.358 371.961 409.952 369.855 409.365 367.596C408.778 365.337 407.808 363.767 405.663 364.175C403.519 364.584 380.34 370.557 380.34 370.557C380.34 370.557 376.639 371.336 376.831 370.353C377.022 369.37 387.743 364.316 389.492 363.141C391.241 361.967 399.435 360.027 398.426 356.326C398.305 355.658 398.033 355.027 397.632 354.479C397.232 353.932 396.712 353.482 396.113 353.164C395.514 352.846 394.85 352.668 394.172 352.643C393.494 352.618 392.819 352.747 392.198 353.02L373.486 359.836L370.372 360.614L370.768 355.739L374.074 351.259C374.369 351.352 374.681 351.385 374.99 351.356C375.298 351.327 375.598 351.235 375.871 351.088C376.144 350.94 376.384 350.739 376.577 350.496C376.771 350.254 376.913 349.975 376.996 349.676C377.259 349.006 377.327 348.277 377.194 347.57C377.061 346.864 376.731 346.209 376.243 345.681Z" fill="#FFBE9D"/>
<path d="M373.729 359.746C372.292 360.57 370.751 361.197 369.147 361.61C367.618 362.254 366.007 362.683 364.36 362.886C365.801 362.07 367.341 361.443 368.942 361.023C370.474 360.386 372.084 359.957 373.729 359.746Z" fill="#EB996E"/>
<path d="M377.992 370.991C376.651 371.731 375.211 372.276 373.716 372.612C372.284 373.159 370.779 373.495 369.249 373.608C372.021 372.329 374.968 371.469 377.992 371.055V370.991Z" fill="#EB996E"/>
<path d="M401.171 372.153C400.84 372.416 400.475 372.635 400.086 372.804C399.359 373.186 398.299 373.71 396.959 374.322C393.489 375.89 389.94 377.279 386.327 378.483C382.713 379.698 379.036 380.716 375.312 381.534C373.883 381.853 372.759 382.07 371.904 382.198C371.486 382.295 371.057 382.342 370.628 382.338C372.12 381.824 373.642 381.397 375.185 381.062C378.005 380.334 381.885 379.249 386.097 377.845C390.309 376.441 394.062 374.973 396.768 373.876C398.202 373.219 399.672 372.644 401.171 372.153Z" fill="#EB996E"/>
<path d="M366.913 381.304C366.849 381.47 365.636 380.832 365.253 379.351C364.871 377.871 365.509 376.709 365.649 376.799C365.79 376.888 365.534 377.922 365.892 379.147C366.249 380.372 367.015 381.151 366.913 381.304Z" fill="#EB996E"/>
<path d="M363.187 371.463C363.187 371.54 362.842 371.463 362.408 371.246C361.865 370.874 361.458 370.336 361.246 369.712C361.034 369.089 361.03 368.414 361.234 367.787C361.412 367.315 361.642 367.098 361.719 367.137C361.795 367.175 361.438 368.272 361.885 369.498C362.331 370.723 363.187 371.285 363.187 371.463Z" fill="#EB996E"/>
<path d="M361.029 359.415C361.04 359.621 361.018 359.828 360.966 360.027C360.876 360.5 360.761 361.061 360.634 361.763C360.315 363.371 359.868 365.592 359.357 368.221V368.145C360.187 374.067 361.323 382.644 362.561 392.268V392.345V392.434C362.319 393.085 362.051 393.774 361.795 394.476C359.011 402.35 357.712 410.673 357.966 419.02C358.037 421.549 358.246 424.071 358.592 426.577C358.706 427.406 358.796 428.083 358.872 428.619C358.925 428.857 358.947 429.102 358.936 429.346C358.851 429.119 358.787 428.884 358.745 428.644C358.643 428.185 358.477 427.508 358.324 426.615C357.89 424.107 357.613 421.575 357.494 419.033C357.097 410.611 358.345 402.191 361.17 394.246C361.425 393.544 361.693 392.842 361.936 392.191V392.357C360.659 382.721 359.638 374.144 358.949 368.196L360.468 361.814C360.647 361.125 360.787 360.538 360.902 360.104C360.927 359.871 360.969 359.641 361.029 359.415Z" fill="#EB996E"/>
<path d="M383.838 386.307C382.612 387.572 381.139 388.571 379.511 389.243C377.974 390.105 376.275 390.64 374.521 390.813C374.521 390.634 376.665 389.894 379.217 388.643C381.77 387.392 383.723 386.142 383.838 386.307Z" fill="#EB996E"/>
<path d="M503.586 412.83C503.586 412.83 508.525 414.106 509.01 417.323C509.495 420.539 505.552 476.035 505.552 476.035H510.249C510.249 476.035 512.125 421.063 512.048 417.131C511.972 413.2 510.108 412.945 509.406 412.664C507.496 412.114 505.462 412.172 503.586 412.83Z" fill="#263238"/>
<path d="M501.096 412.728L523.701 413.596L519.195 386.307L520.74 373.097L550.696 348.081C550.696 348.081 561.175 408.861 562.119 415.881C563.242 424.305 561.609 435.473 557.524 439.468C554.04 442.863 528.934 439.468 519.234 439.468C513.873 439.468 501.058 439.557 501.058 439.557L496.565 418.599L501.096 412.728Z" fill="#FFBE9D"/>
<path d="M557.525 413.672C557.435 413.787 555.904 412.396 552.955 411.12C549.136 409.393 544.948 408.639 540.766 408.924C538.476 409.078 536.219 409.559 534.065 410.354C532.087 411.069 530.377 412.013 528.858 412.6C527.661 413.11 526.397 413.445 525.105 413.596C524.637 413.684 524.157 413.684 523.688 413.596C525.411 413.404 527.091 412.939 528.666 412.217C530.147 411.579 531.819 410.609 533.848 409.831C536.051 408.979 538.371 408.467 540.728 408.312C545.013 408.016 549.3 408.852 553.16 410.737C554.315 411.311 555.417 411.985 556.453 412.754C556.845 413.017 557.204 413.325 557.525 413.672Z" fill="#EB996E"/>
<path d="M477.791 463.055C476.961 464.114 467.414 546.362 467.414 546.362L566.625 546.031L550.901 463.31L477.791 463.055Z" fill="#63B314"/>
<path d="M494.243 546.146C494.064 546.146 493.03 527.664 491.946 504.843C490.861 482.021 490.133 463.565 490.325 463.565C490.516 463.565 491.524 482.047 492.609 504.868C493.694 527.689 494.422 546.133 494.243 546.146Z" fill="#263238"/>
<path d="M453.808 414.106C456.548 413.708 459.26 413.133 461.925 412.383C463.174 411.776 464.381 411.085 465.537 410.316L478.301 409.282L501.084 412.728C501.084 412.728 504.913 415.485 504.364 423.947C503.898 429.614 502.679 435.194 500.739 440.54C500.739 440.54 490.528 448.849 487.797 449.359C485.066 449.87 469.494 449.002 467.95 447.79C467.037 447.098 466.273 446.23 465.703 445.237C464.872 444.812 464.202 444.127 463.796 443.286C463.39 442.444 463.271 441.493 463.457 440.578C463.457 440.578 458.109 433.673 457.42 430.737C456.731 427.802 457.586 427.113 457.586 427.113C457.586 427.113 456.041 423.143 457.241 421.765C457.543 421.428 457.91 421.156 458.319 420.965C458.729 420.774 459.173 420.667 459.624 420.652C460.076 420.636 460.526 420.712 460.948 420.875C461.37 421.037 461.754 421.284 462.079 421.599C463.291 422.977 470.885 421.943 470.885 421.943L477.612 417.45C474.151 418.33 470.632 418.965 467.082 419.352C463.47 419.454 452.595 421.879 453.808 414.106Z" fill="#FFBE9D"/>
<path d="M480.215 430.38C480.215 430.482 478.824 430.725 476.654 431.478C475.569 431.848 474.28 432.333 472.825 432.754C471.226 433.291 469.558 433.592 467.873 433.648C466.146 433.702 464.44 433.259 462.959 432.371C461.787 431.629 460.748 430.698 459.883 429.614C459.303 428.9 458.77 428.15 458.287 427.368C457.943 426.819 457.777 426.5 457.815 426.474C457.853 426.449 458.721 427.598 460.24 429.308C461.109 430.311 462.13 431.172 463.265 431.861C464.662 432.655 466.254 433.044 467.86 432.984C471.306 432.894 474.242 431.58 476.526 430.993C477.711 430.577 478.959 430.369 480.215 430.38Z" fill="#EB996E"/>
<path d="M484.862 424.305C484.925 424.305 485.168 424.458 485.347 424.93C485.564 425.545 485.564 426.216 485.347 426.832C485.138 427.453 484.718 427.982 484.16 428.325C483.726 428.58 483.419 428.58 483.381 428.504C483.343 428.427 484.313 427.827 484.721 426.615C485.13 425.402 484.696 424.381 484.862 424.305Z" fill="#EB996E"/>
<path d="M484.35 439.404C483.305 439.706 482.232 439.898 481.147 439.978C479.156 440.259 476.399 440.591 473.361 440.91C471.922 441.103 470.473 441.214 469.021 441.242C467.815 441.266 466.613 441.076 465.473 440.68C464.381 440.386 463.436 439.7 462.818 438.753C463.67 439.393 464.618 439.892 465.626 440.233C466.729 440.55 467.876 440.684 469.021 440.629C470.298 440.629 471.766 440.412 473.285 440.259C476.335 439.927 479.092 439.672 481.096 439.519C482.174 439.371 483.264 439.333 484.35 439.404Z" fill="#EB996E"/>
<path d="M490.248 433.941C490.324 433.941 490.567 434.196 490.733 434.771C490.95 435.521 490.95 436.318 490.733 437.068C490.519 437.82 490.105 438.5 489.533 439.034C489.086 439.417 488.729 439.532 488.691 439.468C488.652 439.404 489.673 438.447 490.095 436.915C490.266 435.934 490.317 434.935 490.248 433.941Z" fill="#EB996E"/>
<path d="M486.585 446.36C485.597 446.65 484.576 446.804 483.547 446.82C478.61 447.213 473.642 446.904 468.792 445.901C467.772 445.762 466.775 445.483 465.831 445.071C466.853 445.103 467.869 445.227 468.869 445.441C470.732 445.722 473.31 446.041 476.17 446.22C479.029 446.398 481.632 446.398 483.521 446.36C484.54 446.263 485.566 446.263 486.585 446.36Z" fill="#EB996E"/>
<path d="M508.181 412.358C508.181 412.358 512.648 415.702 513.478 417.731C514.307 419.761 523.229 463.042 523.229 463.042H527.058C527.058 463.042 517.958 416.149 515.737 414.336C514.939 413.691 514.084 413.119 513.184 412.626C512.433 412.229 511.606 411.998 510.759 411.947C509.911 411.896 509.063 412.028 508.27 412.332L508.181 412.358Z" fill="#263238"/>
<path d="M421.019 420.858C419.748 421.027 418.46 421.027 417.19 420.858C411.118 420.289 405.265 418.304 400.099 415.064C399.001 414.439 397.985 413.681 397.074 412.805C397.138 412.715 398.351 413.532 400.342 414.655C402.954 416.139 405.702 417.37 408.549 418.331C411.394 419.285 414.321 419.977 417.292 420.399C419.589 420.68 421.019 420.756 421.019 420.858Z" fill="#263238"/>
<g opacity="0.3">
<path d="M443.393 420.169C441.051 419.965 438.692 420.055 436.373 420.437C424.439 421.714 412.122 421.714 401.184 415.6C402.754 418.881 405.442 421.497 408.765 422.977C412.549 424.27 416.522 424.922 420.52 424.904C430.12 425.297 439.736 424.87 449.264 423.628C448.602 422.653 447.732 421.837 446.717 421.239C445.702 420.641 444.566 420.275 443.393 420.169Z" fill="black"/>
</g>
<path d="M406.954 297.639C406.954 293.11 405.154 288.766 401.952 285.563C398.749 282.36 394.405 280.561 389.876 280.561H285.904C281.457 280.683 277.233 282.535 274.131 285.723C271.029 288.911 269.293 293.184 269.293 297.632C269.293 302.081 271.029 306.354 274.131 309.542C277.233 312.73 281.457 314.582 285.904 314.704H348.05C353.883 320.332 363.851 327.927 363.851 327.927V314.078L391.127 314.627C400.457 314.346 406.954 306.573 406.954 297.639Z" fill="white"/>
<path d="M290.427 300.329C290.241 300.329 290.097 300.278 289.995 300.176C289.899 300.068 289.851 299.921 289.851 299.735V294.434C289.851 294.242 289.899 294.095 289.995 293.993C290.097 293.891 290.241 293.84 290.427 293.84C290.613 293.84 290.754 293.891 290.85 293.993C290.952 294.095 291.003 294.242 291.003 294.434V296.558H294.27V294.434C294.27 294.242 294.318 294.095 294.414 293.993C294.516 293.891 294.66 293.84 294.846 293.84C295.032 293.84 295.173 293.891 295.269 293.993C295.371 294.095 295.422 294.242 295.422 294.434V299.735C295.422 299.921 295.371 300.068 295.269 300.176C295.173 300.278 295.032 300.329 294.846 300.329C294.66 300.329 294.516 300.278 294.414 300.176C294.318 300.068 294.27 299.921 294.27 299.735V297.521H291.003V299.735C291.003 299.921 290.955 300.068 290.859 300.176C290.763 300.278 290.619 300.329 290.427 300.329ZM297.415 300.329C297.271 300.329 297.154 300.296 297.064 300.23C296.98 300.164 296.929 300.077 296.911 299.969C296.893 299.855 296.914 299.729 296.974 299.591L299.35 294.326C299.428 294.152 299.521 294.029 299.629 293.957C299.743 293.879 299.872 293.84 300.016 293.84C300.154 293.84 300.277 293.879 300.385 293.957C300.499 294.029 300.595 294.152 300.673 294.326L303.058 299.591C303.124 299.729 303.148 299.855 303.13 299.969C303.112 300.083 303.061 300.173 302.977 300.239C302.893 300.299 302.782 300.329 302.644 300.329C302.476 300.329 302.344 300.29 302.248 300.212C302.158 300.128 302.077 300.002 302.005 299.834L301.42 298.475L301.906 298.79H298.108L298.594 298.475L298.018 299.834C297.94 300.008 297.859 300.134 297.775 300.212C297.691 300.29 297.571 300.329 297.415 300.329ZM299.998 295.163L298.738 298.16L298.504 297.872H301.51L301.285 298.16L300.016 295.163H299.998ZM305.129 300.329C304.961 300.329 304.832 300.281 304.742 300.185C304.652 300.089 304.607 299.957 304.607 299.789V294.38C304.607 294.206 304.655 294.074 304.751 293.984C304.847 293.888 304.979 293.84 305.147 293.84C305.297 293.84 305.414 293.87 305.498 293.93C305.588 293.984 305.669 294.08 305.741 294.218L307.964 298.331H307.676L309.899 294.218C309.971 294.08 310.049 293.984 310.133 293.93C310.217 293.87 310.334 293.84 310.484 293.84C310.652 293.84 310.781 293.888 310.871 293.984C310.961 294.074 311.006 294.206 311.006 294.38V299.789C311.006 299.957 310.961 300.089 310.871 300.185C310.787 300.281 310.658 300.329 310.484 300.329C310.316 300.329 310.187 300.281 310.097 300.185C310.007 300.089 309.962 299.957 309.962 299.789V295.622H310.16L308.27 299.069C308.21 299.171 308.147 299.246 308.081 299.294C308.015 299.342 307.925 299.366 307.811 299.366C307.697 299.366 307.604 299.342 307.532 299.294C307.46 299.24 307.397 299.165 307.343 299.069L305.435 295.613H305.651V299.789C305.651 299.957 305.606 300.089 305.516 300.185C305.432 300.281 305.303 300.329 305.129 300.329ZM313.555 300.257C313.357 300.257 313.204 300.206 313.096 300.104C312.994 299.996 312.943 299.843 312.943 299.645V294.524C312.943 294.326 312.994 294.176 313.096 294.074C313.204 293.966 313.357 293.912 313.555 293.912H315.715C316.159 293.912 316.537 293.978 316.849 294.11C317.161 294.242 317.398 294.431 317.56 294.677C317.728 294.923 317.812 295.217 317.812 295.559C317.812 295.943 317.701 296.267 317.479 296.531C317.257 296.795 316.954 296.972 316.57 297.062V296.927C317.014 296.993 317.359 297.161 317.605 297.431C317.851 297.701 317.974 298.052 317.974 298.484C317.974 299.048 317.782 299.486 317.398 299.798C317.02 300.104 316.492 300.257 315.814 300.257H313.555ZM314.05 299.384H315.67C316.078 299.384 316.378 299.306 316.57 299.15C316.762 298.988 316.858 298.748 316.858 298.43C316.858 298.106 316.762 297.866 316.57 297.71C316.378 297.554 316.078 297.476 315.67 297.476H314.05V299.384ZM314.05 296.603H315.517C315.913 296.603 316.207 296.528 316.399 296.378C316.597 296.222 316.696 295.994 316.696 295.694C316.696 295.394 316.597 295.169 316.399 295.019C316.207 294.863 315.913 294.785 315.517 294.785H314.05V296.603ZM322.316 300.347C321.878 300.347 321.491 300.29 321.155 300.176C320.825 300.062 320.546 299.894 320.318 299.672C320.09 299.444 319.919 299.162 319.805 298.826C319.691 298.49 319.634 298.1 319.634 297.656V294.425C319.634 294.227 319.682 294.08 319.778 293.984C319.88 293.888 320.024 293.84 320.21 293.84C320.396 293.84 320.537 293.888 320.633 293.984C320.735 294.08 320.786 294.227 320.786 294.425V297.647C320.786 298.217 320.915 298.646 321.173 298.934C321.437 299.216 321.818 299.357 322.316 299.357C322.814 299.357 323.192 299.216 323.45 298.934C323.708 298.646 323.837 298.217 323.837 297.647V294.425C323.837 294.227 323.885 294.08 323.981 293.984C324.083 293.888 324.227 293.84 324.413 293.84C324.593 293.84 324.731 293.888 324.827 293.984C324.929 294.08 324.98 294.227 324.98 294.425V297.656C324.98 298.244 324.878 298.739 324.674 299.141C324.476 299.543 324.179 299.846 323.783 300.05C323.387 300.248 322.898 300.347 322.316 300.347ZM327.44 300.329C327.254 300.329 327.11 300.278 327.008 300.176C326.912 300.068 326.864 299.921 326.864 299.735V294.497C326.864 294.305 326.915 294.161 327.017 294.065C327.119 293.963 327.263 293.912 327.449 293.912H329.618C330.314 293.912 330.851 294.08 331.229 294.416C331.607 294.746 331.796 295.211 331.796 295.811C331.796 296.201 331.709 296.537 331.535 296.819C331.367 297.101 331.121 297.317 330.797 297.467C330.473 297.617 330.08 297.692 329.618 297.692L329.699 297.557H329.996C330.242 297.557 330.455 297.617 330.635 297.737C330.821 297.857 330.983 298.046 331.121 298.304L331.796 299.555C331.868 299.681 331.901 299.804 331.895 299.924C331.889 300.044 331.844 300.143 331.76 300.221C331.676 300.293 331.553 300.329 331.391 300.329C331.229 300.329 331.097 300.296 330.995 300.23C330.893 300.158 330.803 300.05 330.725 299.906L329.816 298.232C329.708 298.028 329.579 297.893 329.429 297.827C329.285 297.755 329.099 297.719 328.871 297.719H328.016V299.735C328.016 299.921 327.968 300.068 327.872 300.176C327.776 300.278 327.632 300.329 327.44 300.329ZM328.016 296.864H329.42C329.834 296.864 330.146 296.78 330.356 296.612C330.572 296.438 330.68 296.18 330.68 295.838C330.68 295.502 330.572 295.25 330.356 295.082C330.146 294.908 329.834 294.821 329.42 294.821H328.016V296.864ZM336.581 300.347C335.879 300.347 335.285 300.215 334.799 299.951C334.319 299.687 333.953 299.312 333.701 298.826C333.449 298.34 333.323 297.764 333.323 297.098C333.323 296.594 333.395 296.141 333.539 295.739C333.689 295.337 333.902 294.995 334.178 294.713C334.46 294.425 334.802 294.206 335.204 294.056C335.606 293.9 336.062 293.822 336.572 293.822C336.908 293.822 337.244 293.864 337.58 293.948C337.922 294.026 338.243 294.161 338.543 294.353C338.645 294.419 338.711 294.5 338.741 294.596C338.777 294.692 338.783 294.791 338.759 294.893C338.735 294.989 338.69 295.073 338.624 295.145C338.558 295.217 338.474 295.262 338.372 295.28C338.276 295.298 338.168 295.274 338.048 295.208C337.82 295.076 337.589 294.98 337.355 294.92C337.121 294.86 336.86 294.83 336.572 294.83C336.128 294.83 335.753 294.92 335.447 295.1C335.141 295.274 334.91 295.529 334.754 295.865C334.604 296.201 334.529 296.612 334.529 297.098C334.529 297.836 334.706 298.397 335.06 298.781C335.414 299.165 335.939 299.357 336.635 299.357C336.875 299.357 337.118 299.333 337.364 299.285C337.61 299.237 337.85 299.171 338.084 299.087L337.859 299.6V297.683H336.869C336.719 297.683 336.602 297.644 336.518 297.566C336.44 297.488 336.401 297.383 336.401 297.251C336.401 297.113 336.44 297.008 336.518 296.936C336.602 296.864 336.719 296.828 336.869 296.828H338.354C338.504 296.828 338.618 296.87 338.696 296.954C338.78 297.032 338.822 297.146 338.822 297.296V299.483C338.822 299.615 338.795 299.726 338.741 299.816C338.693 299.906 338.612 299.972 338.498 300.014C338.234 300.11 337.931 300.191 337.589 300.257C337.247 300.317 336.911 300.347 336.581 300.347ZM341.309 300.257C341.111 300.257 340.958 300.206 340.85 300.104C340.748 299.996 340.697 299.843 340.697 299.645V294.524C340.697 294.326 340.748 294.176 340.85 294.074C340.958 293.966 341.111 293.912 341.309 293.912H344.522C344.672 293.912 344.786 293.951 344.864 294.029C344.948 294.107 344.99 294.218 344.99 294.362C344.99 294.512 344.948 294.629 344.864 294.713C344.786 294.791 344.672 294.83 344.522 294.83H341.804V296.576H344.324C344.48 296.576 344.597 296.615 344.675 296.693C344.753 296.771 344.792 296.885 344.792 297.035C344.792 297.185 344.753 297.299 344.675 297.377C344.597 297.455 344.48 297.494 344.324 297.494H341.804V299.339H344.522C344.672 299.339 344.786 299.378 344.864 299.456C344.948 299.534 344.99 299.648 344.99 299.798C344.99 299.948 344.948 300.062 344.864 300.14C344.786 300.218 344.672 300.257 344.522 300.257H341.309ZM347.183 300.329C346.997 300.329 346.853 300.278 346.751 300.176C346.655 300.068 346.607 299.921 346.607 299.735V294.497C346.607 294.305 346.658 294.161 346.76 294.065C346.862 293.963 347.006 293.912 347.192 293.912H349.361C350.057 293.912 350.594 294.08 350.972 294.416C351.35 294.746 351.539 295.211 351.539 295.811C351.539 296.201 351.452 296.537 351.278 296.819C351.11 297.101 350.864 297.317 350.54 297.467C350.216 297.617 349.823 297.692 349.361 297.692L349.442 297.557H349.739C349.985 297.557 350.198 297.617 350.378 297.737C350.564 297.857 350.726 298.046 350.864 298.304L351.539 299.555C351.611 299.681 351.644 299.804 351.638 299.924C351.632 300.044 351.587 300.143 351.503 300.221C351.419 300.293 351.296 300.329 351.134 300.329C350.972 300.329 350.84 300.296 350.738 300.23C350.636 300.158 350.546 300.05 350.468 299.906L349.559 298.232C349.451 298.028 349.322 297.893 349.172 297.827C349.028 297.755 348.842 297.719 348.614 297.719H347.759V299.735C347.759 299.921 347.711 300.068 347.615 300.176C347.519 300.278 347.375 300.329 347.183 300.329ZM347.759 296.864H349.163C349.577 296.864 349.889 296.78 350.099 296.612C350.315 296.438 350.423 296.18 350.423 295.838C350.423 295.502 350.315 295.25 350.099 295.082C349.889 294.908 349.577 294.821 349.163 294.821H347.759V296.864Z" fill="#252525"/>
<path d="M406.953 297.639C406.953 297.639 406.953 297.945 406.953 298.571C406.929 299.488 406.827 300.402 406.647 301.302C406.366 302.77 405.903 304.198 405.268 305.552C404.371 307.399 403.152 309.072 401.669 310.492C399.79 312.259 397.507 313.538 395.019 314.219C394.325 314.403 393.622 314.552 392.913 314.665C392.172 314.751 391.426 314.798 390.68 314.806L385.97 314.729L363.863 314.334L364.106 314.091C364.106 318.456 364.106 323.089 364.106 327.914V328.463L363.685 328.131C358.579 324.187 353.129 319.898 347.832 314.908L348.037 314.997H310.384H289.899C288.137 314.997 286.414 315.061 284.602 314.933C281.123 314.658 277.806 313.35 275.077 311.176C272.348 309.001 270.331 306.061 269.285 302.731C268.868 301.337 268.619 299.897 268.545 298.443C268.48 296.998 268.583 295.55 268.851 294.129C269.151 292.721 269.618 291.354 270.243 290.057C271.466 287.506 273.295 285.294 275.572 283.614C277.848 281.934 280.502 280.837 283.3 280.421C284.657 280.235 286.028 280.162 287.397 280.204H314.685L367.769 280.28H388.191C389.645 280.233 391.102 280.31 392.543 280.51C393.882 280.721 395.193 281.085 396.449 281.595C398.638 282.509 400.615 283.865 402.256 285.577C403.572 286.932 404.643 288.503 405.422 290.223C405.738 290.909 406.015 291.612 406.251 292.329C406.43 292.993 406.583 293.606 406.698 294.142C406.857 294.984 406.947 295.838 406.966 296.694C406.966 297.269 406.966 297.562 406.966 297.562C406.966 297.562 406.966 297.269 406.889 296.694C406.835 295.837 406.725 294.984 406.558 294.142C406.43 293.606 406.264 293.006 406.073 292.355C405.839 291.647 405.558 290.956 405.23 290.287C404.445 288.594 403.369 287.052 402.052 285.73C400.422 284.078 398.472 282.775 396.321 281.901C395.089 281.411 393.804 281.064 392.492 280.867C391.067 280.675 389.628 280.606 388.191 280.663H367.769H314.685H287.397C286.062 280.616 284.725 280.684 283.402 280.867C280.02 281.399 276.88 282.946 274.398 285.303C271.916 287.66 270.209 290.716 269.502 294.065C268.973 296.819 269.113 299.66 269.911 302.349C270.343 303.691 270.934 304.976 271.672 306.178C273.05 308.433 274.947 310.327 277.205 311.701C279.463 313.076 282.016 313.89 284.653 314.078C286.363 314.206 288.163 314.078 289.899 314.142H310.397H348.049H348.164L348.254 314.219C353.499 319.184 358.937 323.485 364.017 327.442L363.583 327.646C363.583 322.821 363.583 318.188 363.583 313.823V313.581H363.838L385.932 314.078C389.174 314.078 392.237 314.474 394.866 313.632C397.307 313.059 399.575 311.908 401.478 310.275C402.951 308.893 404.165 307.259 405.064 305.45C406.114 303.294 406.73 300.952 406.877 298.558C406.915 297.932 406.953 297.639 406.953 297.639Z" fill="#263238"/>
<path d="M384.515 302.961C384.243 302.98 383.97 302.98 383.698 302.961C382.471 302.797 381.319 302.274 380.389 301.456C379.46 300.638 378.793 299.564 378.473 298.367C378.154 297.171 378.195 295.907 378.594 294.735C378.992 293.562 379.728 292.534 380.71 291.78C381.692 291.025 382.875 290.579 384.111 290.497C385.346 290.414 386.579 290.7 387.652 291.317C388.725 291.934 389.592 292.856 390.142 293.965C390.692 295.074 390.901 296.321 390.743 297.55C390.531 299.051 389.784 300.425 388.64 301.419C387.496 302.413 386.031 302.961 384.515 302.961ZM384.515 291.691C383.303 291.691 382.132 292.133 381.223 292.934C380.313 293.735 379.727 294.841 379.575 296.043C379.408 297.356 379.767 298.681 380.572 299.731C381.378 300.78 382.566 301.469 383.877 301.647C385.191 301.817 386.52 301.458 387.571 300.649C388.621 299.84 389.308 298.647 389.48 297.333C389.566 296.682 389.523 296.021 389.353 295.387C389.183 294.754 388.89 294.159 388.491 293.639C388.091 293.119 387.593 292.682 387.025 292.354C386.456 292.027 385.829 291.814 385.178 291.729C384.954 291.703 384.728 291.691 384.502 291.691H384.515Z" fill="#263238"/>
<path d="M393.041 304.429C392.891 304.427 392.747 304.372 392.632 304.276L388.535 300.855C388.471 300.802 388.417 300.736 388.378 300.662C388.339 300.587 388.315 300.506 388.307 300.423C388.3 300.339 388.309 300.255 388.333 300.175C388.358 300.094 388.399 300.02 388.452 299.955C388.506 299.891 388.572 299.838 388.646 299.798C388.72 299.759 388.801 299.735 388.885 299.728C388.969 299.72 389.053 299.729 389.133 299.754C389.213 299.778 389.288 299.819 389.352 299.873L393.449 303.293C393.58 303.403 393.662 303.559 393.679 303.728C393.695 303.897 393.645 304.067 393.539 304.199C393.478 304.272 393.402 304.331 393.316 304.37C393.229 304.41 393.136 304.43 393.041 304.429Z" fill="#263238"/>
</g>
<defs>
<filter id="filter0_d_627_2972" x="0.729492" y="0" width="674.971" height="621.362" filterUnits="userSpaceOnUse" color-interpolation-filters="sRGB">
<feFlood flood-opacity="0" result="BackgroundImageFix"/>
<feColorMatrix in="SourceAlpha" type="matrix" values="0 0 0 0 0 0 0 0 0 0 0 0 0 0 0 0 0 0 127 0" result="hardAlpha"/>
<feMorphology radius="10" operator="dilate" in="SourceAlpha" result="effect1_dropShadow_627_2972"/>
<feOffset dy="1"/>
<feGaussianBlur stdDeviation="32"/>
<feComposite in2="hardAlpha" operator="out"/>
<feColorMatrix type="matrix" values="0 0 0 0 0.000694466 0 0 0 0 0.000694466 0 0 0 0 0.000694466 0 0 0 0.2 0"/>
<feBlend mode="normal" in2="BackgroundImageFix" result="effect1_dropShadow_627_2972"/>
<feBlend mode="normal" in="SourceGraphic" in2="effect1_dropShadow_627_2972" result="shape"/>
</filter>
</defs>
</svg>
