<svg width="224" height="165" viewBox="0 0 224 165" fill="none" xmlns="http://www.w3.org/2000/svg">
<g filter="url(#filter0_d_1051_3391)">
<rect x="2" y="1.02222" width="220" height="160" rx="6.17577" fill="#F2F2F2"/>
</g>
<rect x="17.6052" y="11.5" width="199" height="139" rx="3.5" stroke="#E2E2E2"/>
<circle cx="55.5" cy="41.5" r="5.5" fill="url(#paint0_linear_1051_3391)"/>
<rect x="63" y="39.5" width="23" height="4" fill="url(#paint1_linear_1051_3391)"/>
<rect x="56.5" y="57" width="23" height="4" fill="url(#paint2_linear_1051_3391)"/>
<rect x="56.5" y="71" width="23" height="4" fill="url(#paint3_linear_1051_3391)"/>
<rect x="56.5" y="85" width="23" height="4" fill="url(#paint4_linear_1051_3391)"/>
<rect x="56.5" y="99" width="23" height="4" fill="url(#paint5_linear_1051_3391)"/>
<rect x="56.5" y="113" width="23" height="4" fill="url(#paint6_linear_1051_3391)"/>
<path d="M97.16 41.09C96.8467 41.09 96.5433 41.0633 96.25 41.01C95.9567 40.9633 95.68 40.89 95.42 40.79C95.16 40.69 94.9267 40.5667 94.72 40.42C94.6333 40.36 94.57 40.2867 94.53 40.2C94.4967 40.1133 94.4867 40.03 94.5 39.95C94.52 39.8633 94.5567 39.79 94.61 39.73C94.67 39.67 94.74 39.6333 94.82 39.62C94.9 39.6067 94.9867 39.6333 95.08 39.7C95.3867 39.9067 95.7067 40.0567 96.04 40.15C96.38 40.2433 96.7533 40.29 97.16 40.29C97.7467 40.29 98.1767 40.1833 98.45 39.97C98.73 39.7567 98.87 39.4767 98.87 39.13C98.87 38.8433 98.77 38.62 98.57 38.46C98.37 38.2933 98.0333 38.1633 97.56 38.07L96.5 37.85C95.8733 37.7167 95.4033 37.4967 95.09 37.19C94.7833 36.8833 94.63 36.4733 94.63 35.96C94.63 35.6467 94.6933 35.3633 94.82 35.11C94.9467 34.85 95.1267 34.6267 95.36 34.44C95.5933 34.2533 95.8667 34.11 96.18 34.01C96.5 33.91 96.8533 33.86 97.24 33.86C97.6533 33.86 98.04 33.9167 98.4 34.03C98.7667 34.1433 99.0967 34.31 99.39 34.53C99.47 34.59 99.5233 34.6633 99.55 34.75C99.5767 34.83 99.58 34.91 99.56 34.99C99.5467 35.07 99.51 35.1367 99.45 35.19C99.3967 35.2433 99.3267 35.2733 99.24 35.28C99.16 35.2867 99.07 35.2567 98.97 35.19C98.7033 35.0033 98.43 34.87 98.15 34.79C97.87 34.7033 97.5633 34.66 97.23 34.66C96.89 34.66 96.5933 34.7133 96.34 34.82C96.0933 34.9267 95.9 35.0767 95.76 35.27C95.6267 35.4567 95.56 35.6767 95.56 35.93C95.56 36.2367 95.6533 36.4767 95.84 36.65C96.0267 36.8233 96.34 36.9567 96.78 37.05L97.83 37.26C98.4967 37.4 98.99 37.6167 99.31 37.91C99.6367 38.1967 99.8 38.5833 99.8 39.07C99.8 39.3767 99.7367 39.6533 99.61 39.9C99.49 40.1467 99.3167 40.36 99.09 40.54C98.8633 40.7133 98.5867 40.85 98.26 40.95C97.9333 41.0433 97.5667 41.09 97.16 41.09ZM102.462 41.09C102.128 41.09 101.825 41.0233 101.552 40.89C101.285 40.7567 101.075 40.5767 100.922 40.35C100.775 40.1233 100.702 39.87 100.702 39.59C100.702 39.23 100.792 38.9467 100.972 38.74C101.152 38.5333 101.455 38.3867 101.882 38.3C102.308 38.2067 102.882 38.16 103.602 38.16H104.072V38.74H103.622C103.108 38.74 102.702 38.7633 102.402 38.81C102.108 38.8567 101.902 38.94 101.782 39.06C101.662 39.1733 101.602 39.3333 101.602 39.54C101.602 39.8 101.692 40.0133 101.872 40.18C102.058 40.3467 102.312 40.43 102.632 40.43C102.885 40.43 103.108 40.37 103.302 40.25C103.495 40.1233 103.648 39.9567 103.762 39.75C103.875 39.5367 103.932 39.2933 103.932 39.02V37.87C103.932 37.4767 103.852 37.1933 103.692 37.02C103.532 36.84 103.262 36.75 102.882 36.75C102.662 36.75 102.435 36.78 102.202 36.84C101.968 36.9 101.725 36.9933 101.472 37.12C101.372 37.1667 101.285 37.1833 101.212 37.17C101.138 37.15 101.078 37.11 101.032 37.05C100.992 36.9833 100.968 36.9133 100.962 36.84C100.962 36.76 100.978 36.6833 101.012 36.61C101.052 36.5367 101.118 36.4833 101.212 36.45C101.505 36.3033 101.795 36.2 102.082 36.14C102.375 36.0733 102.648 36.04 102.902 36.04C103.335 36.04 103.692 36.11 103.972 36.25C104.252 36.3833 104.462 36.5933 104.602 36.88C104.742 37.16 104.812 37.52 104.812 37.96V40.6C104.812 40.7533 104.775 40.87 104.702 40.95C104.628 41.03 104.522 41.07 104.382 41.07C104.248 41.07 104.142 41.03 104.062 40.95C103.988 40.87 103.952 40.7533 103.952 40.6V39.89H104.042C103.988 40.1367 103.888 40.35 103.742 40.53C103.595 40.71 103.412 40.85 103.192 40.95C102.978 41.0433 102.735 41.09 102.462 41.09ZM106.984 41.07C106.837 41.07 106.724 41.03 106.644 40.95C106.564 40.87 106.524 40.7533 106.524 40.6V36.83H105.924C105.804 36.83 105.71 36.8 105.644 36.74C105.577 36.6733 105.544 36.5867 105.544 36.48C105.544 36.3667 105.577 36.28 105.644 36.22C105.71 36.16 105.804 36.13 105.924 36.13H106.774L106.524 36.37V36C106.524 35.3533 106.68 34.8633 106.994 34.53C107.314 34.19 107.78 33.9933 108.394 33.94L108.704 33.92C108.804 33.9067 108.884 33.9233 108.944 33.97C109.004 34.01 109.044 34.0633 109.064 34.13C109.084 34.1967 109.084 34.2667 109.064 34.34C109.05 34.4067 109.02 34.4667 108.974 34.52C108.927 34.5733 108.867 34.6033 108.794 34.61L108.574 34.62C108.174 34.6533 107.884 34.7733 107.704 34.98C107.524 35.18 107.434 35.48 107.434 35.88V36.28L107.304 36.13H108.454C108.58 36.13 108.677 36.16 108.744 36.22C108.81 36.28 108.844 36.3667 108.844 36.48C108.844 36.5867 108.81 36.6733 108.744 36.74C108.677 36.8 108.58 36.83 108.454 36.83H107.434V40.6C107.434 40.9133 107.284 41.07 106.984 41.07ZM111.755 41.09C111.229 41.09 110.775 40.99 110.395 40.79C110.022 40.5833 109.732 40.2933 109.525 39.92C109.319 39.54 109.215 39.0933 109.215 38.58C109.215 38.0733 109.315 37.63 109.515 37.25C109.722 36.87 110.002 36.5733 110.355 36.36C110.715 36.1467 111.125 36.04 111.585 36.04C111.912 36.04 112.205 36.0967 112.465 36.21C112.732 36.3167 112.959 36.4733 113.145 36.68C113.332 36.8867 113.472 37.14 113.565 37.44C113.665 37.7333 113.715 38.0667 113.715 38.44C113.715 38.5467 113.682 38.63 113.615 38.69C113.555 38.7433 113.465 38.77 113.345 38.77H109.925V38.19H113.115L112.945 38.33C112.945 37.9833 112.892 37.69 112.785 37.45C112.685 37.2033 112.535 37.0167 112.335 36.89C112.142 36.7633 111.899 36.7 111.605 36.7C111.285 36.7 111.012 36.7767 110.785 36.93C110.559 37.0767 110.385 37.2867 110.265 37.56C110.145 37.8267 110.085 38.1367 110.085 38.49V38.55C110.085 39.15 110.229 39.6033 110.515 39.91C110.802 40.2167 111.215 40.37 111.755 40.37C111.969 40.37 112.185 40.3433 112.405 40.29C112.632 40.2367 112.849 40.14 113.055 40C113.155 39.94 113.245 39.9133 113.325 39.92C113.412 39.92 113.482 39.9467 113.535 40C113.589 40.0467 113.622 40.1067 113.635 40.18C113.649 40.2467 113.639 40.32 113.605 40.4C113.572 40.48 113.509 40.55 113.415 40.61C113.195 40.7633 112.932 40.8833 112.625 40.97C112.325 41.05 112.035 41.09 111.755 41.09ZM115.457 41.07C115.304 41.07 115.184 41.0267 115.097 40.94C115.011 40.8533 114.967 40.73 114.967 40.57V34.45C114.967 34.29 115.011 34.1667 115.097 34.08C115.184 33.9933 115.307 33.95 115.467 33.95H119.057C119.191 33.95 119.291 33.9833 119.357 34.05C119.424 34.11 119.457 34.2 119.457 34.32C119.457 34.4467 119.424 34.5433 119.357 34.61C119.291 34.6767 119.191 34.71 119.057 34.71H115.897V37.07H118.857C118.984 37.07 119.081 37.1033 119.147 37.17C119.214 37.2367 119.247 37.3267 119.247 37.44C119.247 37.5667 119.214 37.6633 119.147 37.73C119.081 37.7967 118.984 37.83 118.857 37.83H115.897V40.57C115.897 40.9033 115.751 41.07 115.457 41.07ZM122.239 41.09C121.759 41.09 121.343 40.9867 120.989 40.78C120.636 40.5733 120.363 40.28 120.169 39.9C119.976 39.52 119.879 39.0733 119.879 38.56C119.879 38.1733 119.933 37.8267 120.039 37.52C120.153 37.2067 120.313 36.94 120.519 36.72C120.726 36.5 120.973 36.3333 121.259 36.22C121.553 36.1 121.879 36.04 122.239 36.04C122.719 36.04 123.136 36.1433 123.489 36.35C123.843 36.5567 124.116 36.85 124.309 37.23C124.503 37.6033 124.599 38.0467 124.599 38.56C124.599 38.9467 124.543 39.2967 124.429 39.61C124.323 39.9233 124.166 40.19 123.959 40.41C123.753 40.63 123.503 40.8 123.209 40.92C122.923 41.0333 122.599 41.09 122.239 41.09ZM122.239 40.37C122.533 40.37 122.786 40.3 122.999 40.16C123.219 40.02 123.386 39.8167 123.499 39.55C123.619 39.2833 123.679 38.9533 123.679 38.56C123.679 37.9733 123.549 37.5267 123.289 37.22C123.029 36.9133 122.679 36.76 122.239 36.76C121.953 36.76 121.699 36.83 121.479 36.97C121.266 37.1033 121.099 37.3033 120.979 37.57C120.859 37.8367 120.799 38.1667 120.799 38.56C120.799 39.1467 120.929 39.5967 121.189 39.91C121.456 40.2167 121.806 40.37 122.239 40.37ZM127.835 41.09C127.355 41.09 126.938 40.9867 126.585 40.78C126.232 40.5733 125.958 40.28 125.765 39.9C125.572 39.52 125.475 39.0733 125.475 38.56C125.475 38.1733 125.528 37.8267 125.635 37.52C125.748 37.2067 125.908 36.94 126.115 36.72C126.322 36.5 126.568 36.3333 126.855 36.22C127.148 36.1 127.475 36.04 127.835 36.04C128.315 36.04 128.732 36.1433 129.085 36.35C129.438 36.5567 129.712 36.85 129.905 37.23C130.098 37.6033 130.195 38.0467 130.195 38.56C130.195 38.9467 130.138 39.2967 130.025 39.61C129.918 39.9233 129.762 40.19 129.555 40.41C129.348 40.63 129.098 40.8 128.805 40.92C128.518 41.0333 128.195 41.09 127.835 41.09ZM127.835 40.37C128.128 40.37 128.382 40.3 128.595 40.16C128.815 40.02 128.982 39.8167 129.095 39.55C129.215 39.2833 129.275 38.9533 129.275 38.56C129.275 37.9733 129.145 37.5267 128.885 37.22C128.625 36.9133 128.275 36.76 127.835 36.76C127.548 36.76 127.295 36.83 127.075 36.97C126.862 37.1033 126.695 37.3033 126.575 37.57C126.455 37.8367 126.395 38.1667 126.395 38.56C126.395 39.1467 126.525 39.5967 126.785 39.91C127.052 40.2167 127.402 40.37 127.835 40.37ZM133.221 41.09C132.794 41.09 132.418 40.99 132.091 40.79C131.771 40.5833 131.521 40.29 131.341 39.91C131.161 39.5233 131.071 39.0733 131.071 38.56C131.071 38.04 131.158 37.5933 131.331 37.22C131.511 36.84 131.761 36.55 132.081 36.35C132.408 36.1433 132.788 36.04 133.221 36.04C133.654 36.04 134.028 36.15 134.341 36.37C134.654 36.5833 134.864 36.87 134.971 37.23H134.861V34.34C134.861 34.1867 134.898 34.0733 134.971 34C135.051 33.92 135.164 33.88 135.311 33.88C135.458 33.88 135.571 33.92 135.651 34C135.731 34.0733 135.771 34.1867 135.771 34.34V40.6C135.771 40.7533 135.731 40.87 135.651 40.95C135.571 41.03 135.458 41.07 135.311 41.07C135.171 41.07 135.061 41.03 134.981 40.95C134.901 40.87 134.861 40.7533 134.861 40.6V39.69L134.971 39.87C134.871 40.2433 134.661 40.54 134.341 40.76C134.028 40.98 133.654 41.09 133.221 41.09ZM133.431 40.37C133.724 40.37 133.978 40.3 134.191 40.16C134.411 40.02 134.578 39.8167 134.691 39.55C134.811 39.2833 134.871 38.9533 134.871 38.56C134.871 37.9733 134.741 37.5267 134.481 37.22C134.221 36.9133 133.871 36.76 133.431 36.76C133.144 36.76 132.891 36.83 132.671 36.97C132.458 37.1033 132.291 37.3033 132.171 37.57C132.051 37.8367 131.991 38.1667 131.991 38.56C131.991 39.1467 132.121 39.5967 132.381 39.91C132.648 40.2167 132.998 40.37 133.431 40.37Z" fill="#252525"/>
<rect x="94" y="50" width="80" height="80" rx="8" fill="url(#paint7_linear_1051_3391)"/>
<path d="M183.5 34.205L182.795 33.5L180 36.295L177.205 33.5L176.5 34.205L179.295 37L176.5 39.795L177.205 40.5L180 37.705L182.795 40.5L183.5 39.795L180.705 37L183.5 34.205Z" fill="#474747"/>
<defs>
<filter id="filter0_d_1051_3391" x="0" y="0.0222168" width="224" height="164" filterUnits="userSpaceOnUse" color-interpolation-filters="sRGB">
<feFlood flood-opacity="0" result="BackgroundImageFix"/>
<feColorMatrix in="SourceAlpha" type="matrix" values="0 0 0 0 0 0 0 0 0 0 0 0 0 0 0 0 0 0 127 0" result="hardAlpha"/>
<feMorphology radius="1" operator="dilate" in="SourceAlpha" result="effect1_dropShadow_1051_3391"/>
<feOffset dy="1"/>
<feGaussianBlur stdDeviation="0.5"/>
<feComposite in2="hardAlpha" operator="out"/>
<feColorMatrix type="matrix" values="0 0 0 0 0.0196078 0 0 0 0 0.0196078 0 0 0 0 0.0196078 0 0 0 0.1 0"/>
<feBlend mode="normal" in2="BackgroundImageFix" result="effect1_dropShadow_1051_3391"/>
<feBlend mode="normal" in="SourceGraphic" in2="effect1_dropShadow_1051_3391" result="shape"/>
</filter>
<linearGradient id="paint0_linear_1051_3391" x1="55.5" y1="36" x2="55.5" y2="47" gradientUnits="userSpaceOnUse">
<stop stop-color="#FFAE63"/>
<stop offset="0.248264" stop-color="#F09C4F" stop-opacity="0.880833"/>
<stop offset="1" stop-color="#C36814" stop-opacity="0.52"/>
</linearGradient>
<linearGradient id="paint1_linear_1051_3391" x1="74.5" y1="39.5" x2="74.5" y2="43.5" gradientUnits="userSpaceOnUse">
<stop stop-color="#FFAE63"/>
<stop offset="0.248264" stop-color="#F09C4F" stop-opacity="0.880833"/>
<stop offset="1" stop-color="#C36814" stop-opacity="0.52"/>
</linearGradient>
<linearGradient id="paint2_linear_1051_3391" x1="68" y1="57" x2="68" y2="61" gradientUnits="userSpaceOnUse">
<stop stop-color="#FFAE63"/>
<stop offset="0.248264" stop-color="#F09C4F" stop-opacity="0.880833"/>
<stop offset="1" stop-color="#C36814" stop-opacity="0.52"/>
</linearGradient>
<linearGradient id="paint3_linear_1051_3391" x1="68" y1="71" x2="68" y2="75" gradientUnits="userSpaceOnUse">
<stop stop-color="#FFAE63"/>
<stop offset="0.248264" stop-color="#F09C4F" stop-opacity="0.880833"/>
<stop offset="1" stop-color="#C36814" stop-opacity="0.52"/>
</linearGradient>
<linearGradient id="paint4_linear_1051_3391" x1="68" y1="85" x2="68" y2="89" gradientUnits="userSpaceOnUse">
<stop stop-color="#FFAE63"/>
<stop offset="0.248264" stop-color="#F09C4F" stop-opacity="0.880833"/>
<stop offset="1" stop-color="#C36814" stop-opacity="0.52"/>
</linearGradient>
<linearGradient id="paint5_linear_1051_3391" x1="68" y1="99" x2="68" y2="103" gradientUnits="userSpaceOnUse">
<stop stop-color="#FFAE63"/>
<stop offset="0.248264" stop-color="#F09C4F" stop-opacity="0.880833"/>
<stop offset="1" stop-color="#C36814" stop-opacity="0.52"/>
</linearGradient>
<linearGradient id="paint6_linear_1051_3391" x1="68" y1="113" x2="68" y2="117" gradientUnits="userSpaceOnUse">
<stop stop-color="#FFAE63"/>
<stop offset="0.248264" stop-color="#F09C4F" stop-opacity="0.880833"/>
<stop offset="1" stop-color="#C36814" stop-opacity="0.52"/>
</linearGradient>
<linearGradient id="paint7_linear_1051_3391" x1="134" y1="50" x2="134" y2="130" gradientUnits="userSpaceOnUse">
<stop stop-color="#FFBD81"/>
<stop offset="1" stop-color="#D37926"/>
</linearGradient>
</defs>
</svg>
