<svg width="225" height="160" viewBox="0 0 225 160" fill="none" xmlns="http://www.w3.org/2000/svg">
<g filter="url(#filter0_d_1051_3415)">
<rect x="2.46808" y="1.02222" width="220" height="155.938" rx="6.17577" fill="#252525"/>
</g>
<circle cx="50.5" cy="39.5" r="5.5" fill="url(#paint0_linear_1051_3415)"/>
<rect x="58" y="37.5" width="23" height="4" fill="url(#paint1_linear_1051_3415)"/>
<rect x="51.5" y="55" width="23" height="4" fill="url(#paint2_linear_1051_3415)"/>
<rect x="51.5" y="69" width="23" height="4" fill="url(#paint3_linear_1051_3415)"/>
<rect x="51.5" y="83" width="23" height="4" fill="url(#paint4_linear_1051_3415)"/>
<rect x="51.5" y="97" width="23" height="4" fill="url(#paint5_linear_1051_3415)"/>
<rect x="51.5" y="111" width="23" height="4" fill="url(#paint6_linear_1051_3415)"/>
<path d="M92.16 39.09C91.8467 39.09 91.5433 39.0633 91.25 39.01C90.9567 38.9633 90.68 38.89 90.42 38.79C90.16 38.69 89.9267 38.5667 89.72 38.42C89.6333 38.36 89.57 38.2867 89.53 38.2C89.4967 38.1133 89.4867 38.03 89.5 37.95C89.52 37.8633 89.5567 37.79 89.61 37.73C89.67 37.67 89.74 37.6333 89.82 37.62C89.9 37.6067 89.9867 37.6333 90.08 37.7C90.3867 37.9067 90.7067 38.0567 91.04 38.15C91.38 38.2433 91.7533 38.29 92.16 38.29C92.7467 38.29 93.1767 38.1833 93.45 37.97C93.73 37.7567 93.87 37.4767 93.87 37.13C93.87 36.8433 93.77 36.62 93.57 36.46C93.37 36.2933 93.0333 36.1633 92.56 36.07L91.5 35.85C90.8733 35.7167 90.4033 35.4967 90.09 35.19C89.7833 34.8833 89.63 34.4733 89.63 33.96C89.63 33.6467 89.6933 33.3633 89.82 33.11C89.9467 32.85 90.1267 32.6267 90.36 32.44C90.5933 32.2533 90.8667 32.11 91.18 32.01C91.5 31.91 91.8533 31.86 92.24 31.86C92.6533 31.86 93.04 31.9167 93.4 32.03C93.7667 32.1433 94.0967 32.31 94.39 32.53C94.47 32.59 94.5233 32.6633 94.55 32.75C94.5767 32.83 94.58 32.91 94.56 32.99C94.5467 33.07 94.51 33.1367 94.45 33.19C94.3967 33.2433 94.3267 33.2733 94.24 33.28C94.16 33.2867 94.07 33.2567 93.97 33.19C93.7033 33.0033 93.43 32.87 93.15 32.79C92.87 32.7033 92.5633 32.66 92.23 32.66C91.89 32.66 91.5933 32.7133 91.34 32.82C91.0933 32.9267 90.9 33.0767 90.76 33.27C90.6267 33.4567 90.56 33.6767 90.56 33.93C90.56 34.2367 90.6533 34.4767 90.84 34.65C91.0267 34.8233 91.34 34.9567 91.78 35.05L92.83 35.26C93.4967 35.4 93.99 35.6167 94.31 35.91C94.6367 36.1967 94.8 36.5833 94.8 37.07C94.8 37.3767 94.7367 37.6533 94.61 37.9C94.49 38.1467 94.3167 38.36 94.09 38.54C93.8633 38.7133 93.5867 38.85 93.26 38.95C92.9333 39.0433 92.5667 39.09 92.16 39.09ZM97.4616 39.09C97.1283 39.09 96.825 39.0233 96.5516 38.89C96.285 38.7567 96.075 38.5767 95.9216 38.35C95.775 38.1233 95.7016 37.87 95.7016 37.59C95.7016 37.23 95.7916 36.9467 95.9716 36.74C96.1516 36.5333 96.455 36.3867 96.8816 36.3C97.3083 36.2067 97.8816 36.16 98.6016 36.16H99.0716V36.74H98.6216C98.1083 36.74 97.7016 36.7633 97.4016 36.81C97.1083 36.8567 96.9016 36.94 96.7816 37.06C96.6616 37.1733 96.6016 37.3333 96.6016 37.54C96.6016 37.8 96.6916 38.0133 96.8716 38.18C97.0583 38.3467 97.3116 38.43 97.6316 38.43C97.885 38.43 98.1083 38.37 98.3016 38.25C98.495 38.1233 98.6483 37.9567 98.7616 37.75C98.875 37.5367 98.9316 37.2933 98.9316 37.02V35.87C98.9316 35.4767 98.8516 35.1933 98.6916 35.02C98.5316 34.84 98.2616 34.75 97.8816 34.75C97.6616 34.75 97.435 34.78 97.2016 34.84C96.9683 34.9 96.725 34.9933 96.4716 35.12C96.3716 35.1667 96.285 35.1833 96.2116 35.17C96.1383 35.15 96.0783 35.11 96.0316 35.05C95.9916 34.9833 95.9683 34.9133 95.9616 34.84C95.9616 34.76 95.9783 34.6833 96.0116 34.61C96.0516 34.5367 96.1183 34.4833 96.2116 34.45C96.505 34.3033 96.795 34.2 97.0816 34.14C97.375 34.0733 97.6483 34.04 97.9016 34.04C98.335 34.04 98.6916 34.11 98.9716 34.25C99.2516 34.3833 99.4616 34.5933 99.6016 34.88C99.7416 35.16 99.8116 35.52 99.8116 35.96V38.6C99.8116 38.7533 99.775 38.87 99.7016 38.95C99.6283 39.03 99.5216 39.07 99.3816 39.07C99.2483 39.07 99.1416 39.03 99.0616 38.95C98.9883 38.87 98.9516 38.7533 98.9516 38.6V37.89H99.0416C98.9883 38.1367 98.8883 38.35 98.7416 38.53C98.595 38.71 98.4116 38.85 98.1916 38.95C97.9783 39.0433 97.735 39.09 97.4616 39.09ZM101.984 39.07C101.837 39.07 101.724 39.03 101.644 38.95C101.564 38.87 101.524 38.7533 101.524 38.6V34.83H100.924C100.804 34.83 100.71 34.8 100.644 34.74C100.577 34.6733 100.544 34.5867 100.544 34.48C100.544 34.3667 100.577 34.28 100.644 34.22C100.71 34.16 100.804 34.13 100.924 34.13H101.774L101.524 34.37V34C101.524 33.3533 101.68 32.8633 101.994 32.53C102.314 32.19 102.78 31.9933 103.394 31.94L103.704 31.92C103.804 31.9067 103.884 31.9233 103.944 31.97C104.004 32.01 104.044 32.0633 104.064 32.13C104.084 32.1967 104.084 32.2667 104.064 32.34C104.05 32.4067 104.02 32.4667 103.974 32.52C103.927 32.5733 103.867 32.6033 103.794 32.61L103.574 32.62C103.174 32.6533 102.884 32.7733 102.704 32.98C102.524 33.18 102.434 33.48 102.434 33.88V34.28L102.304 34.13H103.454C103.58 34.13 103.677 34.16 103.744 34.22C103.81 34.28 103.844 34.3667 103.844 34.48C103.844 34.5867 103.81 34.6733 103.744 34.74C103.677 34.8 103.58 34.83 103.454 34.83H102.434V38.6C102.434 38.9133 102.284 39.07 101.984 39.07ZM106.755 39.09C106.229 39.09 105.775 38.99 105.395 38.79C105.022 38.5833 104.732 38.2933 104.525 37.92C104.319 37.54 104.215 37.0933 104.215 36.58C104.215 36.0733 104.315 35.63 104.515 35.25C104.722 34.87 105.002 34.5733 105.355 34.36C105.715 34.1467 106.125 34.04 106.585 34.04C106.912 34.04 107.205 34.0967 107.465 34.21C107.732 34.3167 107.959 34.4733 108.145 34.68C108.332 34.8867 108.472 35.14 108.565 35.44C108.665 35.7333 108.715 36.0667 108.715 36.44C108.715 36.5467 108.682 36.63 108.615 36.69C108.555 36.7433 108.465 36.77 108.345 36.77H104.925V36.19H108.115L107.945 36.33C107.945 35.9833 107.892 35.69 107.785 35.45C107.685 35.2033 107.535 35.0167 107.335 34.89C107.142 34.7633 106.899 34.7 106.605 34.7C106.285 34.7 106.012 34.7767 105.785 34.93C105.559 35.0767 105.385 35.2867 105.265 35.56C105.145 35.8267 105.085 36.1367 105.085 36.49V36.55C105.085 37.15 105.229 37.6033 105.515 37.91C105.802 38.2167 106.215 38.37 106.755 38.37C106.969 38.37 107.185 38.3433 107.405 38.29C107.632 38.2367 107.849 38.14 108.055 38C108.155 37.94 108.245 37.9133 108.325 37.92C108.412 37.92 108.482 37.9467 108.535 38C108.589 38.0467 108.622 38.1067 108.635 38.18C108.649 38.2467 108.639 38.32 108.605 38.4C108.572 38.48 108.509 38.55 108.415 38.61C108.195 38.7633 107.932 38.8833 107.625 38.97C107.325 39.05 107.035 39.09 106.755 39.09ZM110.457 39.07C110.304 39.07 110.184 39.0267 110.097 38.94C110.011 38.8533 109.967 38.73 109.967 38.57V32.45C109.967 32.29 110.011 32.1667 110.097 32.08C110.184 31.9933 110.307 31.95 110.467 31.95H114.057C114.191 31.95 114.291 31.9833 114.357 32.05C114.424 32.11 114.457 32.2 114.457 32.32C114.457 32.4467 114.424 32.5433 114.357 32.61C114.291 32.6767 114.191 32.71 114.057 32.71H110.897V35.07H113.857C113.984 35.07 114.081 35.1033 114.147 35.17C114.214 35.2367 114.247 35.3267 114.247 35.44C114.247 35.5667 114.214 35.6633 114.147 35.73C114.081 35.7967 113.984 35.83 113.857 35.83H110.897V38.57C110.897 38.9033 110.751 39.07 110.457 39.07ZM117.239 39.09C116.759 39.09 116.343 38.9867 115.989 38.78C115.636 38.5733 115.363 38.28 115.169 37.9C114.976 37.52 114.879 37.0733 114.879 36.56C114.879 36.1733 114.933 35.8267 115.039 35.52C115.153 35.2067 115.313 34.94 115.519 34.72C115.726 34.5 115.973 34.3333 116.259 34.22C116.553 34.1 116.879 34.04 117.239 34.04C117.719 34.04 118.136 34.1433 118.489 34.35C118.843 34.5567 119.116 34.85 119.309 35.23C119.503 35.6033 119.599 36.0467 119.599 36.56C119.599 36.9467 119.543 37.2967 119.429 37.61C119.323 37.9233 119.166 38.19 118.959 38.41C118.753 38.63 118.503 38.8 118.209 38.92C117.923 39.0333 117.599 39.09 117.239 39.09ZM117.239 38.37C117.533 38.37 117.786 38.3 117.999 38.16C118.219 38.02 118.386 37.8167 118.499 37.55C118.619 37.2833 118.679 36.9533 118.679 36.56C118.679 35.9733 118.549 35.5267 118.289 35.22C118.029 34.9133 117.679 34.76 117.239 34.76C116.953 34.76 116.699 34.83 116.479 34.97C116.266 35.1033 116.099 35.3033 115.979 35.57C115.859 35.8367 115.799 36.1667 115.799 36.56C115.799 37.1467 115.929 37.5967 116.189 37.91C116.456 38.2167 116.806 38.37 117.239 38.37ZM122.835 39.09C122.355 39.09 121.938 38.9867 121.585 38.78C121.232 38.5733 120.958 38.28 120.765 37.9C120.572 37.52 120.475 37.0733 120.475 36.56C120.475 36.1733 120.528 35.8267 120.635 35.52C120.748 35.2067 120.908 34.94 121.115 34.72C121.322 34.5 121.568 34.3333 121.855 34.22C122.148 34.1 122.475 34.04 122.835 34.04C123.315 34.04 123.732 34.1433 124.085 34.35C124.438 34.5567 124.712 34.85 124.905 35.23C125.098 35.6033 125.195 36.0467 125.195 36.56C125.195 36.9467 125.138 37.2967 125.025 37.61C124.918 37.9233 124.762 38.19 124.555 38.41C124.348 38.63 124.098 38.8 123.805 38.92C123.518 39.0333 123.195 39.09 122.835 39.09ZM122.835 38.37C123.128 38.37 123.382 38.3 123.595 38.16C123.815 38.02 123.982 37.8167 124.095 37.55C124.215 37.2833 124.275 36.9533 124.275 36.56C124.275 35.9733 124.145 35.5267 123.885 35.22C123.625 34.9133 123.275 34.76 122.835 34.76C122.548 34.76 122.295 34.83 122.075 34.97C121.862 35.1033 121.695 35.3033 121.575 35.57C121.455 35.8367 121.395 36.1667 121.395 36.56C121.395 37.1467 121.525 37.5967 121.785 37.91C122.052 38.2167 122.402 38.37 122.835 38.37ZM128.221 39.09C127.794 39.09 127.418 38.99 127.091 38.79C126.771 38.5833 126.521 38.29 126.341 37.91C126.161 37.5233 126.071 37.0733 126.071 36.56C126.071 36.04 126.158 35.5933 126.331 35.22C126.511 34.84 126.761 34.55 127.081 34.35C127.408 34.1433 127.788 34.04 128.221 34.04C128.654 34.04 129.028 34.15 129.341 34.37C129.654 34.5833 129.864 34.87 129.971 35.23H129.861V32.34C129.861 32.1867 129.898 32.0733 129.971 32C130.051 31.92 130.164 31.88 130.311 31.88C130.458 31.88 130.571 31.92 130.651 32C130.731 32.0733 130.771 32.1867 130.771 32.34V38.6C130.771 38.7533 130.731 38.87 130.651 38.95C130.571 39.03 130.458 39.07 130.311 39.07C130.171 39.07 130.061 39.03 129.981 38.95C129.901 38.87 129.861 38.7533 129.861 38.6V37.69L129.971 37.87C129.871 38.2433 129.661 38.54 129.341 38.76C129.028 38.98 128.654 39.09 128.221 39.09ZM128.431 38.37C128.724 38.37 128.978 38.3 129.191 38.16C129.411 38.02 129.578 37.8167 129.691 37.55C129.811 37.2833 129.871 36.9533 129.871 36.56C129.871 35.9733 129.741 35.5267 129.481 35.22C129.221 34.9133 128.871 34.76 128.431 34.76C128.144 34.76 127.891 34.83 127.671 34.97C127.458 35.1033 127.291 35.3033 127.171 35.57C127.051 35.8367 126.991 36.1667 126.991 36.56C126.991 37.1467 127.121 37.5967 127.381 37.91C127.648 38.2167 127.998 38.37 128.431 38.37Z" fill="#F2F2F2"/>
<rect x="89" y="48" width="80" height="80" rx="8" fill="url(#paint7_linear_1051_3415)"/>
<path d="M178.5 32.205L177.795 31.5L175 34.295L172.205 31.5L171.5 32.205L174.295 35L171.5 37.795L172.205 38.5L175 35.705L177.795 38.5L178.5 37.795L175.705 35L178.5 32.205Z" fill="#F2F2F2"/>
<rect x="31.5" y="17.5" width="161" height="122" rx="3.5" stroke="#474747"/>
<defs>
<filter id="filter0_d_1051_3415" x="0.468079" y="0.0222168" width="224" height="159.938" filterUnits="userSpaceOnUse" color-interpolation-filters="sRGB">
<feFlood flood-opacity="0" result="BackgroundImageFix"/>
<feColorMatrix in="SourceAlpha" type="matrix" values="0 0 0 0 0 0 0 0 0 0 0 0 0 0 0 0 0 0 127 0" result="hardAlpha"/>
<feMorphology radius="1" operator="dilate" in="SourceAlpha" result="effect1_dropShadow_1051_3415"/>
<feOffset dy="1"/>
<feGaussianBlur stdDeviation="0.5"/>
<feComposite in2="hardAlpha" operator="out"/>
<feColorMatrix type="matrix" values="0 0 0 0 0.0196078 0 0 0 0 0.0196078 0 0 0 0 0.0196078 0 0 0 0.1 0"/>
<feBlend mode="normal" in2="BackgroundImageFix" result="effect1_dropShadow_1051_3415"/>
<feBlend mode="normal" in="SourceGraphic" in2="effect1_dropShadow_1051_3415" result="shape"/>
</filter>
<linearGradient id="paint0_linear_1051_3415" x1="50.5" y1="34" x2="50.5" y2="45" gradientUnits="userSpaceOnUse">
<stop stop-color="#A97A34"/>
<stop offset="1" stop-color="#A36D1C" stop-opacity="0.43"/>
</linearGradient>
<linearGradient id="paint1_linear_1051_3415" x1="69.5" y1="37.5" x2="69.5" y2="41.5" gradientUnits="userSpaceOnUse">
<stop stop-color="#A97A34"/>
<stop offset="1" stop-color="#A36D1C" stop-opacity="0.43"/>
</linearGradient>
<linearGradient id="paint2_linear_1051_3415" x1="63" y1="55" x2="63" y2="59" gradientUnits="userSpaceOnUse">
<stop stop-color="#A97A34"/>
<stop offset="1" stop-color="#A36D1C" stop-opacity="0.43"/>
</linearGradient>
<linearGradient id="paint3_linear_1051_3415" x1="63" y1="69" x2="63" y2="73" gradientUnits="userSpaceOnUse">
<stop stop-color="#A97A34"/>
<stop offset="1" stop-color="#A36D1C" stop-opacity="0.43"/>
</linearGradient>
<linearGradient id="paint4_linear_1051_3415" x1="63" y1="83" x2="63" y2="87" gradientUnits="userSpaceOnUse">
<stop stop-color="#A97A34"/>
<stop offset="1" stop-color="#A36D1C" stop-opacity="0.43"/>
</linearGradient>
<linearGradient id="paint5_linear_1051_3415" x1="63" y1="97" x2="63" y2="101" gradientUnits="userSpaceOnUse">
<stop stop-color="#A97A34"/>
<stop offset="1" stop-color="#A36D1C" stop-opacity="0.43"/>
</linearGradient>
<linearGradient id="paint6_linear_1051_3415" x1="63" y1="111" x2="63" y2="115" gradientUnits="userSpaceOnUse">
<stop stop-color="#A97A34"/>
<stop offset="1" stop-color="#A36D1C" stop-opacity="0.43"/>
</linearGradient>
<linearGradient id="paint7_linear_1051_3415" x1="129" y1="48" x2="129" y2="128" gradientUnits="userSpaceOnUse">
<stop stop-color="#A97A34"/>
<stop offset="1" stop-color="#A36D1C" stop-opacity="0.43"/>
</linearGradient>
</defs>
</svg>
